<svg xmlns="http://www.w3.org/2000/svg" width="924" height="643"  xmlns:v="https://vecta.io/nano"><circle fill="#fdd62e" cx="459.2" cy="321.5" r="321.5"/><circle fill="#1c3a54" cx="460.1" cy="322.4" r="281.9"/><g fill="#fdd62e"><circle cx="458.5" cy="338.7" r="188.4"/><path d="M846.9 395H72.3C33 395 .8 362.8.8 323.5v-5.1c0-39.3 32.2-71.5 71.5-71.5h774.6c39.3 0 71.5 32.2 71.5 71.5v5.1c0 39.3-32.2 71.5-71.5 71.5z"/></g><path fill="#fff" d="M528.5 513.2a16.99 16.99 0 1 1 0-34 16.99 16.99 0 1 1 0 34zm-134.9-49.4l9.1-28.1c2.2-6.7 4.7-8.7 12.2-8.7h86.9c6.9 0 10.2 2.2 12.2 8.7l9.1 28.1H393.6zm-5.4 49.4a16.99 16.99 0 1 1 0-34 16.99 16.99 0 0 1 17 17c.1 9.4-7.5 17-17 17zm156.9-49.4h-4.9l-13.1-40.3c-2.2-6.6-9.5-11.7-16.5-11.7H406.1c-7.1 0-14.3 5.1-16.5 11.7l-13.1 40.3h-4.9c-8.6 0-15.6 7-15.6 15.6v54.9h15.6v21.8c0 6 4.9 10.8 10.8 10.8h14.3c6 0 10.8-4.8 10.8-10.8v-21.8H509v21.8c0 6 4.9 10.8 10.8 10.8h14.3c6 0 10.8-4.8 10.8-10.8v-21.8h15.4v-54.9c.4-8.6-6.6-15.6-15.2-15.6h0z"/><path d="M99.6 274.5c20.1 0 32.6 9.9 39.3 21.4L119 306.4c-3.7-6.1-10.8-10.9-19.5-10.9-15 0-25.7 11.6-25.7 26.6s10.6 26.6 25.7 26.6c7.2 0 13.7-2.5 17.4-5.5v-7.7H95.8v-19.7h44.4v36c-9.9 10.9-23.3 17.9-40.7 17.9-27.5 0-49.8-18.4-49.8-47.6s22.4-47.6 49.9-47.6zm54.6 1.6h24.2v54c0 10.9 5.8 18.8 18.6 18.8 12.7 0 18.5-7.9 18.5-18.8v-54h24.1v54.6c0 22.9-13.1 39.1-42.6 39.1s-42.8-16.3-42.8-38.9v-54.8zM310 354.2h-38.2l-4.7 13.9h-25.8l34.6-92h29.8l34.8 92h-25.8l-4.7-13.9zm-32-20h25.8l-13-37.4-12.8 37.4zm105.2 2.7h-12.1v31.2h-23.7v-92h46.1c20.4 0 32 13.5 32 30.6 0 16-9.8 24.6-18.4 27.6l18.8 33.8h-27.2l-15.5-31.2zm6.6-40.8H371v20.7h18.8c6.2 0 11.5-4 11.5-10.4 0-6.3-5.3-10.3-11.5-10.3zm107.6 58.1h-38.2l-4.7 13.9h-25.8l34.6-92h29.8l34.8 92h-25.8l-4.7-13.9zm-32-20h25.8l-13-37.4-12.8 37.4zm93-21.7v55.6h-23.7v-92h24.4l37.3 53v-53h23.9v92h-22.9l-39-55.6zm99-15.7h-25.8v-20.7h75.2v20.7h-25.7v71.3h-23.7v-71.3zm60.7-20.7h67.5v20h-43.7v15.3h42.8v20.1h-42.8v16.6h43.7v20h-67.5v-92zm81.3 0h67.5v20h-43.8v15.3h42.8v20.1h-42.8v16.6h43.7v20h-67.5v-92z" fill="#1c3a54"/><path d="M248.7 190.6l10.6-15.5c1.7-2.5 3.7-4.3 6-5.4s4.6-1.5 7.1-1.3c2.4.3 4.7 1.1 6.8 2.6 2.1 1.4 3.7 3.3 4.9 5.4 1.1 2.2 1.6 4.5 1.4 7.1-.2 2.5-1.2 5-2.8 7.5l-7.3 10.7 15.3 10.5-3.3 4.8-38.7-26.4zm20.1-16.3c-2.4.4-4.4 1.8-5.9 4.1l-6.9 10.1 15.4 10.5 6.9-10.1c1.6-2.3 2.1-4.6 1.6-7s-1.8-4.4-4.1-5.9c-2.3-1.6-4.6-2.1-7-1.7zm39.7-13.5l-6.7 6.4 12.8 13.4-4.2 4-32.3-33.7 13.5-13c2.1-2 4.3-3.3 6.7-4s4.8-.7 7.2 0 4.5 2.1 6.5 4.1c1.9 2 3.1 4 3.7 6.2s.6 4.3 0 6.4-1.6 3.9-3 5.6l22.3 5-5 4.7-21.5-5.1zm-7.4-21.7c-2.4-.1-4.7.9-6.6 2.8l-8.8 8.5 12.9 13.4 8.8-8.5c2-1.9 3-4.1 3-6.5 0-2.5-.9-4.7-2.8-6.6-1.9-2.1-4-3.1-6.5-3.1zm13.8-20.3l4.7-3.4 26.9 38.1-4.7 3.4-26.9-38.1zm47.7 22.3c-4.2-.2-8-1.5-11.5-3.9s-6.3-5.7-8.3-9.9a25.16 25.16 0 0 1-2.7-12.7c.3-4.2 1.6-8.1 4-11.5s5.5-6.1 9.5-8c3.6-1.8 7.1-2.6 10.4-2.5s6.5.9 9.6 2.6l-3.2 4.6c-2.1-1.2-4.5-1.9-7.1-2s-5.2.4-7.6 1.6c-3 1.5-5.3 3.5-7 6.2s-2.6 5.7-2.7 9 .7 6.7 2.3 10 3.8 6 6.5 8 5.6 3.1 8.8 3.4 6.2-.3 9.2-1.7c2.4-1.2 4.4-2.8 5.9-5 1.5-2.1 2.5-4.4 2.8-6.8l5.7.3c-1.5 7.3-5.6 12.5-12.3 15.8-4.1 1.9-8.1 2.7-12.3 2.5zm22.9-58l29.7-7.3 1.1 4.6-24.1 5.9 3.7 15 23.6-5.8 1.1 4.6-23.6 5.8 4 16.5 24.1-5.9 1.1 4.6-29.7 7.3-11-45.3zm109.6 0l-19.3 37.3-2.4-.2-12.3-40.1-3.5 38.7-5.8-.5 4.2-46.5 8.3.8 11.2 36.7 17.7-34.1 8.3.8-4.2 46.5-5.8-.5 3.6-38.9zm42.3 42.1l-22.3-8-7.4 8.4-6.1-2.2 33.5-37.6 6.8 2.4 1.9 50.3-6.1-2.2-.3-11.1zm-19.2-12l19.2 6.9-.7-27.8-18.5 20.9zM575 109l-12.7-7.5 2.4-4.1 30.6 17.9-2.4 4.1-12.8-7.5-21.2 36.2-5-2.9L575 109zm9.1 54.5c-1.3-4-1.5-8-.6-12.1s3-7.9 6.1-11.4c3.2-3.4 6.7-5.8 10.8-7.1s8.1-1.5 12.2-.5 7.7 2.9 10.9 5.9c3 2.7 5 5.6 6.2 8.7s1.5 6.4 1.1 9.9l-5.5-1.3c.4-2.4.1-4.8-.8-7.3s-2.3-4.6-4.3-6.5c-2.4-2.2-5.2-3.7-8.3-4.3s-6.2-.3-9.4.8-6 3.1-8.5 5.8c-2.5 2.8-4.2 5.7-5 9-.8 3.2-.8 6.4.1 9.4.9 3.1 2.5 5.7 5 7.9 2 1.8 4.3 3.1 6.8 3.7s5 .7 7.4.1l1.8 5.4c-7.3 1.3-13.7-.6-19.2-5.6-3.3-3.1-5.5-6.5-6.8-10.5zm60.8 41.9l-15.2-22.7-18.2 12.1-3.2-4.8 38.8-25.9 3.2 4.8-16.7 11.2 15.2 22.7 16.7-11.2 3.2 4.8-38.7 25.9-3.2-4.8 18.1-12.1z" fill="#fff"/></svg>