<svg xmlns="http://www.w3.org/2000/svg" xmlns:xlink="http://www.w3.org/1999/xlink" width="226" height="159" xmlns:v="https://vecta.io/nano"><defs><path id="A" d="M.172 0h157.763v159H.172z"/></defs><g fill="none" fill-rule="evenodd"><g transform="translate(34.475)"><mask id="B" fill="#fff"><use xlink:href="#A"/></mask><path fill="#2fa7e8" d="M79.053 0c43.565 0 78.882 35.593 78.882 79.5S122.618 159 79.053 159 .172 123.407.172 79.5 35.488 0 79.053 0" mask="url(#B)"/></g><path fill="#1c3a54" d="M113.479 10.536c38.344 0 69.428 31.09 69.428 69.443s-31.084 69.443-69.428 69.443-69.428-31.09-69.428-69.443 31.084-69.443 69.428-69.443"/><g fill="#2fa7e8"><path d="M113.479 37.355c25.65 0 46.445 20.8 46.445 46.455s-20.794 46.455-46.445 46.455-46.445-20.799-46.445-46.455 20.794-46.455 46.445-46.455"/><path d="M208.39 97.699H17.61C7.93 97.699 0 89.785 0 80.127v-1.254c0-9.658 7.93-17.572 17.61-17.572h190.78c9.68 0 17.61 7.914 17.61 17.572v1.254c0 9.658-7.93 17.572-17.61 17.572"/></g><path fill="#fff" d="M134.19 114.375h-1.195l-3.192-9.955c-.536-1.63-2.316-2.89-4.022-2.89h-25.469c-1.73 0-3.485 1.26-4.021 2.89l-3.193 9.955h-1.194c-2.096 0-3.802 1.73-3.802 3.854v13.561h3.802v5.386c0 1.482 1.194 2.667 2.632 2.667h3.485c1.463 0 2.632-1.185 2.632-2.667v-5.386h24.738v5.386c0 1.482 1.195 2.667 2.633 2.667h3.485c1.462 0 2.632-1.185 2.632-2.667v-5.386h3.753v-13.56c.098-2.125-1.608-3.854-3.704-3.854zm-38.24 12.203c-2.291 0-4.144-1.877-4.144-4.2s1.853-4.199 4.144-4.199 4.143 1.878 4.143 4.2c.024 2.322-1.828 4.2-4.143 4.2zm1.316-12.203l2.218-6.941c.536-1.655 1.145-2.15 2.973-2.15h21.18c1.681 0 2.485.544 2.973 2.15l2.218 6.941H97.266zm32.878 12.203c-2.291 0-4.143-1.877-4.143-4.2s1.852-4.199 4.143-4.199 4.143 1.878 4.143 4.2-1.852 4.2-4.143 4.2z"/><path fill="#1c3a54" d="M13.617 83.474c1.605 1.538 4.061 2.811 7.095 2.811 1.955 0 3.158-.793 3.158-1.826 0-1.225-1.428-1.681-3.81-2.162-3.66-.696-8.8-1.585-8.8-6.654 0-3.58 3.16-6.68 8.875-6.68 3.56 0 6.669 1.034 9.025 2.98l-3.134 3.94c-1.855-1.466-4.311-2.21-6.267-2.21-1.905 0-2.632.744-2.632 1.657 0 1.13 1.379 1.514 3.836 1.946 3.66.745 8.723 1.754 8.723 6.583 0 4.276-3.309 7.135-9.275 7.135-4.512 0-7.646-1.345-9.877-3.387l3.083-4.133zm23.598-.602h5.986l-3.005-8.94-2.98 8.94zm7.429 4.794h-8.847l-1.082 3.328h-5.986l8.03-22.03h6.9l8.053 22.03h-5.986l-1.082-3.328zm5.153-18.702h6.233l5.246 15.895 5.271-15.895h6.233l-8.062 22.03h-6.907zm23.94 0h16.28v4.788H79.448v3.672h10.318v4.813H79.448v3.969h10.569v4.788h-16.28zm45.092 7.178l-5.563 14.852h-2.497l-5.513-14.852v14.852h-5.663v-22.03h7.863l4.574 12.493 4.599-12.493h7.863v22.03h-5.663zm20.051-2.307c-3.588 0-5.867 2.688-5.867 6.168 0 3.456 2.28 6.167 5.867 6.167 3.54 0 5.843-2.711 5.843-6.167 0-3.504-2.279-6.168-5.843-6.168m0-4.871c6.57 0 11.467 4.535 11.467 11.015s-4.897 11.015-11.467 11.015-11.516-4.536-11.516-11.015 4.946-11.015 11.516-11.015m18.972 8.718v13.312h-5.589v-22.03h5.735l8.762 12.691V68.964h5.613v22.03h-5.394zm18.351-8.718h16.28v4.788h-10.569v3.672h10.319v4.813h-10.319v3.969h10.569v4.788h-16.28zm24.503 13.138l-8.223-13.138h6.314l4.723 8.121 4.65-8.121h6.338l-8.198 13.138v8.892h-5.604z"/><path fill="#fff" d="M81.398 40.965c-.123.81-.594 1.572-1.41 2.309-.298.27-.57.467-.818.59a5.2 5.2 0 0 1-.891.343 5.57 5.57 0 0 0-.792.295c-.198.098-.421.246-.644.442s-.446.467-.644.81l-.619 1.18-1.213-.467c.372-.81.545-1.547.52-2.21 0-.664-.198-1.204-.594-1.622-.248-.27-.57-.491-.966-.638l-2.054 1.866-.817-.884 1.51-1.375-.198-.025c-.693-.074-1.238-.196-1.684-.32-.445-.147-.841-.417-1.238-.834-.47-.492-.742-1.081-.817-1.769-.099-.688 0-1.35.248-2.039.272-.687.668-1.301 1.238-1.817.644-.59 1.337-.983 2.104-1.155.743-.196 1.486-.147 2.204.099l-.421 1.424c-.421-.196-.916-.27-1.436-.196a2.53 2.53 0 0 0-1.436.687c-.57.516-.891 1.106-.99 1.794s.099 1.301.594 1.817c.322.369.693.614 1.064.737s.842.221 1.436.295c.025 0 .248.024.669.098l2.129-1.94.817.884-1.733 1.572c.223.123.445.32.668.54.693.762.941 1.744.693 2.923.149-.295.372-.565.62-.81.197-.197.42-.32.643-.418s.495-.172.817-.246l.693-.22c.198-.074.372-.197.57-.369.297-.27.52-.565.643-.909.149-.344.198-.638.174-.884l1.361.442zm16.28-8.252c-.388.737-1.09 1.296-2.083 1.728a4.73 4.73 0 0 1-.945.28c-.267.025-.581.025-.945 0-.339-.026-.605-.026-.823 0s-.46.076-.751.203a3.36 3.36 0 0 0-.873.559l-.969.915-.944-.89c.63-.66 1.041-1.321 1.26-1.957s.242-1.22.024-1.779c-.146-.355-.364-.686-.679-.965l-2.543 1.067-.436-1.17 1.865-.787-.17-.102c-.605-.33-1.065-.635-1.429-.94-.339-.305-.63-.711-.823-1.27-.243-.661-.291-1.322-.146-2.008a4.16 4.16 0 0 1 .945-1.88c.484-.56 1.066-.992 1.768-1.297.8-.33 1.575-.457 2.326-.356s1.405.407 1.986.915l-.896 1.22c-.315-.356-.75-.584-1.26-.712s-1.041-.076-1.55.128c-.703.28-1.211.737-1.526 1.372-.34.635-.364 1.296-.097 1.982.17.458.412.839.727 1.093.29.254.702.534 1.21.813.025.026.219.127.582.356l2.64-1.093.437 1.17-2.132.889c.17.203.29.483.412.787.387.992.242 2.008-.388 3.076a2.68 2.68 0 0 1 .848-.534c.267-.102.509-.153.727-.178s.509 0 .823.05a7.76 7.76 0 0 0 .727.026 1.51 1.51 0 0 0 .63-.152c.363-.153.678-.356.92-.636s.412-.533.485-.787l1.066.864zm20.11-1.853c-.554.5-1.477.748-2.769.748-.392 0-.738-.024-1.038-.124-.3-.075-.647-.2-1.016-.35-.484-.223-.9-.348-1.223-.348-.576 0-1.269.224-2.054.623l-1.038-2.168c.508-.275.923-.574 1.246-.948.323-.349.485-.747.485-1.171 0-.324-.07-.648-.208-.972l-1.938.025-.023-2.169h.946c-.185-.324-.346-.648-.462-.922-.115-.299-.161-.598-.161-.922 0-.798.208-1.496.67-2.094.438-.598 1.014-1.047 1.707-1.37s1.407-.5 2.122-.5c1.108 0 2.031.175 2.77.55s1.315.971 1.707 1.794l-2.446 1.545c-.138-.399-.346-.698-.646-.922s-.623-.324-.97-.324a1.59 1.59 0 0 0-1.084.399c-.276.274-.438.598-.415.997a1.97 1.97 0 0 0 .139.772 8.67 8.67 0 0 0 .392.798l.115.174 2.492-.025.023 2.169-1.984.025v.174a3.52 3.52 0 0 1-.3 1.446c-.208.474-.462.798-.762 1.022.254-.1.531-.15.854-.175.231 0 .415.025.577.1l.623.324c.37.274.692.399.992.399.346 0 .646-.075.9-.2s.439-.299.554-.498l1.223 2.119zM136 36.24c-.726.257-1.592.206-2.575-.204-.351-.154-.632-.308-.843-.488a5.38 5.38 0 0 1-.678-.667l-.586-.59c-.164-.154-.374-.282-.655-.385a3.39 3.39 0 0 0-.96-.205c-.374-.025-.796-.025-1.264 0l-.117-1.334c.843-.051 1.545-.23 2.107-.564.562-.308.936-.744 1.123-1.308.117-.36.164-.77.117-1.206l-2.481-1.026.398-1.18 1.803.744-.07-.206c-.235-.666-.375-1.23-.445-1.718-.07-.462 0-.975.187-1.54a3.3 3.3 0 0 1 1.147-1.59c.538-.41 1.147-.641 1.85-.718s1.38.026 2.06.308c.772.333 1.404.795 1.872 1.385.491.616.772 1.308.866 2.103l-1.405.283c-.023-.488-.163-.975-.444-1.437s-.68-.795-1.194-1c-.679-.283-1.311-.308-1.943-.077s-1.054.692-1.311 1.41c-.164.488-.21.924-.164 1.335s.164.897.351 1.462c.024.025.07.256.187.667l2.552 1.051-.398 1.18-2.06-.846c-.023.282-.07.564-.187.872-.351 1-1.077 1.693-2.177 2.027.328 0 .632.077.936.205.258.103.468.23.632.385s.351.359.562.641a5.15 5.15 0 0 0 .492.539c.14.128.327.256.538.333a2.19 2.19 0 0 0 1.053.18c.352-.026.632-.103.82-.257l.304 1.437zm14.374 10.694c-.832-.025-1.664-.415-2.52-1.122-.303-.269-.53-.512-.68-.732a8.38 8.38 0 0 1-.455-.83l-.378-.755c-.126-.196-.302-.39-.53-.586s-.528-.39-.882-.536c-.352-.171-.78-.317-1.285-.464l.353-1.244c.882.269 1.638.366 2.319.293s1.21-.317 1.588-.732c.252-.268.428-.61.53-1.024l-2.143-1.83.832-.902 1.562 1.341v-.195c0-.683.05-1.244.151-1.683s.328-.878.732-1.292c.453-.513 1.033-.83 1.714-1s1.386-.147 2.117.024c.731.195 1.387.537 1.991 1.024.681.561 1.135 1.22 1.412 1.927s.328 1.44.126 2.171l-1.512-.268c.151-.44.176-.927.05-1.44s-.403-.95-.857-1.34c-.58-.489-1.235-.757-1.94-.781a2.22 2.22 0 0 0-1.816.78c-.327.366-.53.732-.63 1.122-.076.39-.126.854-.151 1.415l-.026.658 2.219 1.879-.832.902-1.79-1.512c-.1.244-.277.463-.479.707-.706.78-1.663 1.098-2.899 1 .328.122.63.293.883.537.227.195.378.366.504.585l.353.756a4.17 4.17 0 0 0 .302.659c.101.17.252.341.429.512.302.268.63.44 1.008.537.353.097.68.122.908.097l-.278 1.342z"/></g></svg>