<svg xmlns="http://www.w3.org/2000/svg" xmlns:xlink="http://www.w3.org/1999/xlink" width="281" height="144" xmlns:v="https://vecta.io/nano"><defs><path id="A" d="M0 144h280.602V0H0z"/></defs><g fill="none" fill-rule="evenodd"><path stroke="#1c3a54" stroke-width="5" d="M140.4 2.5c38.384 0 69.5 31.116 69.5 69.5s-31.116 69.5-69.5 69.5S70.9 110.384 70.9 72s31.116-69.5 69.5-69.5z"/><mask id="B" fill="#fff"><use xlink:href="#A"/></mask><path fill="#00b67a" d="M0 91.2h41v-41H0zm44 7h53.9V42.9H44zm56.9 11.7h78.4V31.5h-78.4zm81.4-11.7h55.3V42.9h-55.3z" mask="url(#B)"/><path fill="#dcdce6" d="M260.602 91.2h20v-41h-20z" mask="url(#B)"/><path fill="#00b67a" d="M240.602 91.2h20v-41h-20z" mask="url(#B)"/><path fill="#fff" d="M34.3 67.2H23.5L20.2 57l-3.3 10.2H6.1l8.8 6.3-3.3 10.2 8.8-6.3 5.4-3.9 8.5-6.3zM20.2 77.4l6.1-1.6 2.6 7.9-8.7-6.3zm69.7-11.6H75.4l-4.5-13.7-4.5 13.7H51.8l11.8 8.5L59.1 88l11.8-8.5 7.3-5.2 11.7-8.5zm-19 13.8l8.3-2.1 3.5 10.7-11.8-8.6zM167.5 64h-20.7l-6.3-19.5-6.4 19.5h-20.7l16.7 12.1-6.2 19.4 27-19.4L167.5 64zm-27 19.5l11.7-3 4.9 15.1-16.6-12.1zM229 65.8h-14.6l-4.5-13.7-4.5 13.7h-14.6l11.8 8.5-4.5 13.7 19.2-13.7 11.7-8.5zm-19.1 13.8l8.3-2.1 3.5 10.7-11.8-8.6zm65-12.4h-10.8L260.8 57l-3.3 10.2h-10.8l8.8 6.3-3.3 10.2 8.8-6.3 5.4-3.9 8.5-6.3zm-14.1 10.2l6.1-1.6 2.6 7.9-8.7-6.3z" mask="url(#B)"/></g></svg>