<svg xmlns="http://www.w3.org/2000/svg" xmlns:xlink="http://www.w3.org/1999/xlink" width="75" height="83" viewBox="0 0 75 83">
    <defs>
        <path id="a" d="M0 .044h74.353V82H0z"/>
        <path id="c" d="M0 82h74.545V0H0z"/>
    </defs>
    <g fill="none" fill-rule="evenodd" transform="translate(0 .288)">
        <path fill="#0FAFE6" d="M17.371 22.364a.97.97 0 0 1-.69-1.651l4.768-4.775a.975.975 0 0 1 1.373-.002c.38.377.383.99.005 1.37l-4.766 4.774a.982.982 0 0 1-.69.284M21.886 33.545c-.26 0-.518-.1-.716-.297a1.01 1.01 0 0 1 0-1.431l12.883-12.883a1.009 1.009 0 0 1 1.431 0 1.01 1.01 0 0 1 0 1.432L22.602 33.248a1.01 1.01 0 0 1-.716.297M35.33 36.527c-.266 0-.532-.102-.734-.304a1.034 1.034 0 0 1 0-1.467l9.103-9.105a1.04 1.04 0 0 1 1.473 0 1.044 1.044 0 0 1 0 1.466l-9.109 9.106a1.036 1.036 0 0 1-.733.304"/>
        <path fill="#1C3A54" d="M10.347 2.737c-4.193.013-7.62 3.41-7.631 7.573v61.455c.01 4.156 3.435 7.541 7.63 7.541h53.66c4.196 0 7.618-3.385 7.631-7.546V40.766a7.477 7.477 0 0 0-1.68-4.757L45.16 5.522a7.67 7.67 0 0 0-5.939-2.785H10.347zm53.66 79.262h-53.66C4.657 82 .017 77.41 0 71.77V10.305C.017 4.663 4.657.063 10.344.044H39.224c3.131 0 6.064 1.376 8.046 3.781l24.8 30.493a10.149 10.149 0 0 1 2.283 6.456v30.991C74.334 77.41 69.693 82 64.007 82z"/>
        <path fill="#1C3A54" d="M57.821 39.045c.376.002.93-.14 1.293-.42.426-.326.696-.799.767-1.328a1.966 1.966 0 0 0-.41-1.475l-20.27-24.921H10.927V37.13c.044 1.066.873 1.96 2.035 1.915h44.858zm.052 2.7H12.936c-2.53 0-4.654-2.03-4.733-4.548-.003-.013-.003-.03-.003-.043V10.388c0-.581.23-1.132.644-1.545A2.202 2.202 0 0 1 10.41 8.2h29.025a2.27 2.27 0 0 1 1.735.816l20.443 25.132a4.68 4.68 0 0 1-.827 6.612 4.807 4.807 0 0 1-2.913.985z"/>
        <path fill="#1C3A54" d="M12.673 52.927H32.8v-4.472H12.673z"/>
        <path fill="#1C3A54" d="M13.94 51.746h17.593v-2.11H13.94v2.11zm18.972 2.672H12.561c-.761 0-1.38-.598-1.38-1.336V48.3c0-.74.619-1.336 1.38-1.336h20.351c.761 0 1.379.595 1.379 1.336v4.782c0 .738-.618 1.336-1.379 1.336z"/>
        <path fill="#0FAFE6" d="M12.673 46.218H32.8v4.267c0 1.347-1.06 2.442-2.373 2.442H15.045c-1.309 0-2.372-1.095-2.372-2.442v-4.267z"/>
        <path fill="#1C3A54" d="M13.94 47.366v2.692c0 .538.457.976 1.02.976h15.553c.562 0 1.02-.438 1.02-.976v-2.692H13.94zm16.573 6.307H14.96c-2.082 0-3.778-1.623-3.778-3.615v-4.011c0-.729.618-1.32 1.379-1.32h20.351c.761 0 1.379.591 1.379 1.32v4.01c0 1.993-1.693 3.616-3.778 3.616z"/>
        <path fill="#0FAFE6" d="M62.763 50.546a4.594 4.594 0 0 1 0 6.497l-13.922 13.92a4.595 4.595 0 0 1-6.497 0 4.595 4.595 0 0 1 0-6.494l13.924-13.923a4.592 4.592 0 0 1 6.495 0"/>
        <path fill="#1C3A54" d="M59.951 49.739c-.965 0-1.873.377-2.556 1.062l-14.05 14.047a3.625 3.625 0 0 0 0 5.117c1.368 1.366 3.75 1.363 5.117-.003l14.045-14.047a3.585 3.585 0 0 0 1.063-2.558c0-.965-.377-1.873-1.063-2.556a3.584 3.584 0 0 0-2.556-1.062m-14.05 23.316a5.645 5.645 0 0 1-3.996-1.654 5.66 5.66 0 0 1 0-7.99L55.953 49.36a5.667 5.667 0 0 1 7.996 0 5.67 5.67 0 0 1 0 7.997L49.901 71.401a5.648 5.648 0 0 1-4 1.654"/>
        <path fill="#0FAFE6" d="M42.344 50.546a4.595 4.595 0 0 1 6.497 0l13.922 13.92a4.594 4.594 0 0 1-6.495 6.497L42.344 57.04a4.595 4.595 0 0 1 0-6.494"/>
        <path fill="#1C3A54" d="M43.344 50.798a3.628 3.628 0 0 0 0 5.12l14.051 14.044c1.364 1.372 3.746 1.372 5.112 0a3.583 3.583 0 0 0 1.063-2.556c0-.967-.377-1.875-1.063-2.558L48.462 50.8c-1.364-1.369-3.749-1.372-5.118-.003m16.607 22.257a5.648 5.648 0 0 1-3.998-1.651l-14.048-14.05c-2.2-2.206-2.2-5.789 0-7.99v-.002a5.662 5.662 0 0 1 7.996 0L63.95 63.406a5.67 5.67 0 0 1 0 7.998 5.648 5.648 0 0 1-3.998 1.65"/>
        <path fill="#1C3A54" d="M45.993 52.402a.745.745 0 1 1-1.043 1.064.747.747 0 0 1-.012-1.052c.003-.003.006-.01.012-.012a.713.713 0 0 1 1.01-.033l.033.033zM47.496 54.643a.747.747 0 0 1-1.055 1.055.748.748 0 0 1-.009-1.055.742.742 0 0 1 1.053-.012c.003.003.008.006.011.012" />
        <path fill="#1C3A54" d="M47.484 52.402a.745.745 0 1 1-1.043 1.062.747.747 0 0 1-.012-1.053l.012-.009a.713.713 0 0 1 1.043 0M45.993 54.638a.745.745 0 1 1-1.043 1.065.747.747 0 0 1-.012-1.053c.003-.003.006-.009.012-.012a.713.713 0 0 1 1.01-.033l.033.033zM58.666 65.074a.745.745 0 1 1-1.043 1.065.747.747 0 0 1 0-1.065.713.713 0 0 1 1.01-.032l.033.032zM60.903 67.311a.745.745 0 1 1-1.044 1.065.747.747 0 0 1 0-1.065.713.713 0 0 1 1.01-.032c.013.009.022.02.034.032M60.903 65.075a.745.745 0 1 1-1.044 1.065.747.747 0 0 1-.012-1.053l.012-.012a.713.713 0 0 1 1.044 0M58.666 67.31a.745.745 0 1 1-1.043 1.065.747.747 0 0 1-.012-1.053l.012-.012a.716.716 0 0 1 1.01-.033c.012.012.021.024.033.033"/>
    </g>
</svg>
