<svg xmlns="http://www.w3.org/2000/svg" width="70" height="66" viewBox="0 0 70 66">
    <g fill="none" fill-rule="evenodd">
        <path stroke="#1C3A54" stroke-linecap="round" stroke-linejoin="round" stroke-width="1.75" d="M38 24c5.524 0 10 4.476 10 10 0 5.522-4.476 10-10 10s-10-4.478-10-10c0-5.524 4.476-10 10-10z"/>
        <path fill="#1C3A54" d="M38 29a2.001 2.001 0 1 1-.002 4.002A2.001 2.001 0 0 1 38 29M38 36a2.001 2.001 0 1 1-.002 4.002A2.001 2.001 0 0 1 38 36M42 32a2 2 0 1 1 0 4 2 2 0 0 1 0-4M34 32a2.001 2.001 0 1 1-.002 4.002A2.001 2.001 0 0 1 34 32"/>
        <path stroke="#1C3A54" stroke-linecap="round" stroke-linejoin="round" stroke-width="1.75" d="M38.5 18C47.613 18 55 25.163 55 34s-7.387 16-16.5 16S22 42.837 22 34s7.387-16 16.5-16z"/>
        <path stroke="#1C3A54" stroke-linecap="round" stroke-linejoin="round" stroke-width="1.75" d="M37.5 5C54.898 5 69 18.433 69 35c0 16.57-14.102 30-31.5 30S6 51.57 6 35C6 18.433 20.102 5 37.5 5z"/>
        <path fill="#0FAFE6" d="M12.683 34.818C12.714 24.748 18.765 15.694 28 11.9L23.536 1C5.07 8.562-3.833 29.813 3.651 48.467c.21.515.426 1.028.658 1.533l10.811-4.488a24.852 24.852 0 0 1-2.437-10.694"/>
        <path stroke="#1C3A54" stroke-linecap="round" stroke-linejoin="round" stroke-width="1.75" d="M12.683 34.818C12.714 24.748 18.765 15.694 28 11.9L23.536 1C5.07 8.562-3.833 29.813 3.651 48.467c.21.515.426 1.028.658 1.533l10.811-4.488a24.852 24.852 0 0 1-2.437-10.694z"/>
        <path fill="#1C3A54" d="M16.5 11a1.501 1.501 0 1 1-.002 3.002A1.501 1.501 0 0 1 16.5 11M10.5 19a1.5 1.5 0 1 1 0 3 1.5 1.5 0 0 1 0-3M6.5 29a1.5 1.5 0 1 1 0 3 1.5 1.5 0 0 1 0-3M6.5 40a1.5 1.5 0 1 1 0 3 1.5 1.5 0 0 1 0-3"/>
    </g>
</svg>
