<svg xmlns="http://www.w3.org/2000/svg" width="94" height="92" viewBox="0 0 94 92">
    <g fill="none" fill-rule="evenodd" transform="translate(2 1.5)">
        <path fill="#1C3A54" d="M11.331 18.445l.534-3.248 3.326 1.025-.534 3.248zM9.612 26.511l.534-3.248 3.326 1.025-.534 3.248zM7.847 34.642l.533-3.248 3.326 1.025-.533 3.247zM4.192 51.295l.533-3.248 3.326 1.025-.533 3.247zM6.077 42.94l.534-3.248 3.326 1.025-.534 3.247zM2.575 58.98l.533-3.247 3.326 1.025-.534 3.248zM3.028 77.198l-1.366-4.36 4.555-1.745c.227 1.163.455 2.035.91 3.198l-4.099 2.907zM17.738 86.356l-2.411-.796.803-5.309c.643.266 1.287.531 1.93.531l-.322 5.574zM9.98 83.304l-.714-.509c-.237-.254-.475-.509-.713-.509-.475-.509-.95-.763-1.425-1.272l3.564-3.816.951 1.018.475.509.476.508-2.615 4.07zM26.259 84.891l-.965.733-.643.488-.322.244h-.16-.161l-.482-5.128.321-.244.965-.733 1.447 4.64zM36.771 73.92l1.997-1.406 1.773 4.71-1.996 1.406zM34.458 81.838l-2.982 1.466-2.484-4.396 3.23-1.71zM44.173 69.919l1.993-1.414 1.782 4.7-1.993 1.413zM51.868 65.885l1.99-1.422 1.791 4.689-1.99 1.422zM59.222 61.797l1.989-1.426 1.795 4.684-1.99 1.425zM66.222 58.055l.847-.61 1.14-.82 1.8 4.678-1.988 1.43zM83.652 49.724c-.656 1.018-1.312 2.035-2.187 3.053l-3.28-3.816c.657-.763 1.094-1.526 1.75-2.29l3.717 3.053zM73.59 53.966l1.987-1.432 1.802 4.674-1.986 1.433zM89.118 43.619a7.16 7.16 0 0 1-.713 3.052l-4.753-1.144c.237-.573.475-1.336.475-1.908h4.99zM84.636 34.46c.437.532.655 1.063.874 1.593.219.531.656 1.328.875 1.859l-4.155 2.654c-.218-.53-.437-.796-.655-1.327-.22-.531-.438-.796-.656-1.327l3.717-3.451zM78.067 28.355l2.852 1.879-2.615 4.227-2.851-1.644zM61.763 24.304l1.928-4.51 1.939 1.553-1.929 4.509zM69.045 28.76l1.923-4.517 1.941 1.547-1.923 4.517zM54.382 19.683l1.932-4.506 1.937 1.555-1.931 4.506zM40.052 11.01l1.935-4.5 1.936 1.557-1.935 4.5zM47.31 15.46l1.933-4.503 1.937 1.557-1.933 4.502zM23.526 1.159C24.38.88 25.405.88 26.259.88l-.171 5.828c-.683 0-1.367 0-1.88.278l-.682-5.828zM15.327 6.376c.95-.977 1.9-1.71 2.851-2.442l2.615 4.396c-.476.488-1.189.977-1.902 1.71l-3.564-3.664zM12.594 14.11c.437-1.454.874-2.617 1.311-4.07l4.155 2.907c-.438 1.163-.875 2.035-1.094 3.198l-4.372-2.035z"/>
        <path stroke="#1C3A54" stroke-width="2.5" d="M1.662 63.991v1.904c0 1.427 0 2.855.232 4.282.465 2.856 1.394 5.71 3.02 8.328.93 1.19 1.86 2.38 3.02 3.33 1.162.953 2.324 1.666 3.718 2.38 2.556 1.19 5.344 1.904 8.132 2.141h4.647l.232-.237.697-.238c.233-.238.697-.238.93-.476l1.858-.952c2.324-1.19 4.647-2.38 7.203-3.807 9.526-4.996 18.82-10.23 28.113-15.227l13.94-7.614 3.486-1.903 1.858-.952c.233 0 .465-.238.697-.476l.465-.476.697-.713c.93-1.19 1.859-2.142 2.556-3.57.697-1.189 1.394-2.617 1.626-4.282.232-1.428.465-3.093.232-4.52-.232-1.428-.697-3.094-1.394-4.283-.697-1.428-1.626-2.617-2.555-3.57l-.697-.713-.93-1.19c-.232-.238-.232-.475-.464-.475l-.465-.238-.93-.476c-4.646-2.617-9.06-5.473-13.708-8.328L40.462 4.985l-3.485-2.14-.464-.239s-.233 0-.233-.238h-.232c-.232-.238-.697-.238-.93-.476-.696-.238-1.394-.475-2.09-.475-3.02-.714-5.809-.714-8.83 0-1.393.237-2.788.951-3.95 1.665-1.16.714-2.323 1.903-3.252 2.855-.697.714-1.162 1.19-1.394 1.904a5.2 5.2 0 0 0-1.162 1.903c-.697 1.19-1.161 2.617-1.858 4.045L1.662 63.99z"/>
        <ellipse cx="73.172" cy="43.754" fill="#0FAFE6" stroke="#1C3A54" stroke-width="2.5" rx="16.702" ry="16.438"/>
        <ellipse cx="28.361" cy="15.794" fill="#0FAFE6" stroke="#1C3A54" stroke-width="2.4" rx="16.008" ry="15.794"/>
        <ellipse cx="17.143" cy="71.512" fill="#0FAFE6" stroke="#1C3A54" stroke-width="2.5" rx="17.143" ry="16.878"/>
    </g>
</svg>
