<svg xmlns="http://www.w3.org/2000/svg" xmlns:xlink="http://www.w3.org/1999/xlink" width="82" height="85" viewBox="0 0 82 85">
    <defs>
        <path id="a" d="M0 1.773h80.26V82H0z"/>
    </defs>
    <g fill="none" fill-rule="evenodd">
        <path fill="#0FAFE6" d="M39.947 23.071c10.538 0 19.082 8.544 19.082 19.082s-8.544 19.081-19.082 19.081-19.082-8.543-19.082-19.081S29.41 23.07 39.947 23.07"/>
        <g transform="translate(0 .443)">
            <path fill="#1C3A54" d="M39.764 23.67a19.577 19.577 0 0 0-3.685.356l-1.075.293a18.132 18.132 0 0 0-7.422 4.173l-.579.534a18.013 18.013 0 0 0-4.543 7.655 5.467 5.467 0 0 0-.153.594 17.898 17.898 0 0 0-.623 4.552c.016 1.39.19 2.797.523 4.164l.085.34c.044.188.086.374.148.545a18.306 18.306 0 0 0 4.384 7.54l.585.65c2.083 1.973 4.725 3.46 7.577 4.236l.851.217a17.81 17.81 0 0 0 8.313-.113l.341-.082c.226-.055.45-.106.665-.17.045-.023.096-.04.144-.058a18.206 18.206 0 0 0 6.87-4.094c.258-.234.5-.478.719-.72a17.95 17.95 0 0 0 4.19-7.174l.105-.308c.062-.17.137-.385.137-.48 0-.087.011-.174.031-.258.326-1.363.488-2.766.479-4.168a19.187 19.187 0 0 0-.397-3.992 30.51 30.51 0 0 0-.357-1.314 18.048 18.048 0 0 0-3.9-6.921l-.738-.83a18.598 18.598 0 0 0-7.14-4.314l-.907-.253a18.968 18.968 0 0 0-4.628-.6m-.004 38.502a20.15 20.15 0 0 1-4.446-.499l-.897-.23a20.222 20.222 0 0 1-8.597-4.834l-.619-.687a20.353 20.353 0 0 1-4.866-8.357 6.27 6.27 0 0 1-.198-.718l-.077-.308a20.824 20.824 0 0 1-.592-4.707c.011-1.718.24-3.416.68-5.062.04-.204.11-.475.193-.74a20.242 20.242 0 0 1 5.129-8.602l.605-.56a20.357 20.357 0 0 1 8.342-4.685l1.163-.313a21.779 21.779 0 0 1 4.186-.417c1.758.01 3.504.238 5.204.679l.97.272a20.871 20.871 0 0 1 8.101 4.907l.785.875a20.202 20.202 0 0 1 4.377 7.78c.142.491.277.972.392 1.455a21.36 21.36 0 0 1 .452 4.473 19.705 19.705 0 0 1-.514 4.576c-.027.412-.153.774-.26 1.07l-.075.224a20.183 20.183 0 0 1-4.69 8.032c-.245.27-.536.56-.826.827a20.383 20.383 0 0 1-7.49 4.512.906.906 0 0 1-.158.066c-.328.109-.672.193-1.026.277l-.315.078c-1.609.41-3.269.616-4.933.616M28.754 69.59c.135 0 .27.024.399.073 2.061.8 4.215 1.36 6.405 1.666.547.08.953.546.953 1.097v6.006c-.013.74.563 1.341 1.283 1.354l4.745-.002c.683.049 1.325-.574 1.332-1.294v-6.152c0-.543.392-1.006.926-1.093a27.536 27.536 0 0 0 5.69-1.578 1.12 1.12 0 0 1 1.373.488l3.037 5.41c.359.629 1.172.85 1.81.485l4.047-2.225c.632-.353.86-1.164.5-1.804-.006-.013-.012-.027-.02-.038l-3.06-5.44a1.106 1.106 0 0 1 .269-1.406 30.336 30.336 0 0 0 4.534-4.532c.343-.428.95-.532 1.42-.261l5.475 3.215a1.326 1.326 0 0 0 1.804-.487l2.353-4.016a1.33 1.33 0 0 0-.472-1.808l-5.547-3.33c-.463-.276-.66-.848-.463-1.349a29.498 29.498 0 0 0 1.644-6.132 1.11 1.11 0 0 1 1.095-.938h6.427a1.33 1.33 0 0 0 1.33-1.33v-4.498c.035-.783-.534-1.405-1.266-1.439l-.064-1.11v1.108h-6.427c-.545 0-1.01-.397-1.095-.937a29.5 29.5 0 0 0-1.474-5.683 1.106 1.106 0 0 1 .497-1.347l5.585-3.147a1.305 1.305 0 0 0 .516-1.782 1.432 1.432 0 0 1-.093-.206l-2.136-3.874c-.342-.674-1.129-.938-1.776-.605l-5.618 3.167a1.11 1.11 0 0 1-1.42-.286 30.101 30.101 0 0 0-4.446-4.616 1.11 1.11 0 0 1-.244-1.414l3.172-5.364a1.335 1.335 0 0 0-.477-1.808L57.27 7.983a1.305 1.305 0 0 0-1.79.463l-3.143 5.346c-.275.47-.86.671-1.36.47a30.684 30.684 0 0 0-6.268-1.733 1.107 1.107 0 0 1-.929-1.093V5.297c0-.72-.585-1.307-1.305-1.307h-4.59c-.72 0-1.305.587-1.305 1.307v6.006c0 .552-.408 1.02-.956 1.1a28.546 28.546 0 0 0-5.908 1.49 1.113 1.113 0 0 1-1.343-.48l-3.014-5.186a1.296 1.296 0 0 0-1.758-.525l-4.11 2.247c-.34.177-.577.459-.686.802-.108.346-.077.712.09 1.03l2.976 5.176c.277.48.152 1.095-.289 1.431a30.183 30.183 0 0 0-4.809 4.617c-.35.42-.95.523-1.423.241l-4.964-2.994a1.31 1.31 0 0 0-1.78.47l-2.366 4c-.364.62-.151 1.436.474 1.807l4.915 2.876c.472.277.672.858.47 1.368a29.765 29.765 0 0 0-1.75 6.411 1.11 1.11 0 0 1-1.098.935H3.556c-.772-.02-1.337.59-1.339 1.326.002.035.011.19.011.226v4.654c0 .733.596 1.33 1.328 1.33H9.25a1.11 1.11 0 0 1 1.097.94 29.726 29.726 0 0 0 1.578 5.979 1.108 1.108 0 0 1-.5 1.367L6.46 56.667a1.285 1.285 0 0 0-.618.78 1.29 1.29 0 0 0 .113.995l2.23 4.078c.34.671 1.127.937 1.775.607l5.219-2.945a1.106 1.106 0 0 1 1.411.277 29.778 29.778 0 0 0 4.701 4.72c.434.348.543.964.257 1.439l-3.036 5.03c-.36.612-.146 1.426.479 1.796l3.947 2.353a1.33 1.33 0 0 0 1.8-.494l3.062-5.17a1.11 1.11 0 0 1 .953-.543M42.564 82H37.884c-2.077-.037-3.626-1.646-3.59-3.588v-5.037a31.077 31.077 0 0 1-5.058-1.319l-2.586 4.37c-.975 1.674-3.15 2.25-4.831 1.284l-3.959-2.358a3.555 3.555 0 0 1-1.256-4.836l2.553-4.226a32.05 32.05 0 0 1-3.701-3.72l-4.33 2.445c-1.9.967-4.023.273-4.903-1.462l-2.198-4.025a3.495 3.495 0 0 1-.313-2.695 3.488 3.488 0 0 1 1.68-2.108l4.133-2.271a31.7 31.7 0 0 1-1.208-4.583H3.556a3.547 3.547 0 0 1-3.544-3.546V39.67a1.315 1.315 0 0 1-.011-.23 3.552 3.552 0 0 1 3.546-3.538h4.771a32.52 32.52 0 0 1 1.383-5.057l-4.11-2.407A3.558 3.558 0 0 1 4.326 23.6l2.354-3.976a3.513 3.513 0 0 1 2.17-1.649 3.472 3.472 0 0 1 2.67.372l4.17 2.516a31.994 31.994 0 0 1 3.782-3.632l-2.494-4.335c-.957-1.835-.277-3.996 1.467-4.903l4.038-2.207c.863-.479 1.809-.585 2.706-.324.9.257 1.645.851 2.097 1.671l2.542 4.37a30.921 30.921 0 0 1 4.532-1.147v-5.06a3.528 3.528 0 0 1 3.524-3.524h4.565a3.532 3.532 0 0 1 3.548 3.524v5.213c1.663.323 3.307.778 4.9 1.354l2.656-4.512c1.001-1.702 3.16-2.265 4.84-1.281l4.009 2.349a3.559 3.559 0 0 1 1.263 4.838L60.96 17.83a32.34 32.34 0 0 1 3.464 3.592l4.718-2.661c1.9-.967 4.023-.27 4.905 1.46l2.198 4.025c.951 1.71.335 3.86-1.365 4.802l-4.77 2.689a32.065 32.065 0 0 1 1.111 4.277h5.492l.14.002c1.976.091 3.495 1.753 3.404 3.706l.002 4.448a3.55 3.55 0 0 1-3.546 3.546h-5.492a31.51 31.51 0 0 1-1.283 4.776l4.752 2.852a3.55 3.55 0 0 1 1.254 4.829l-2.351 4.016a3.556 3.556 0 0 1-4.836 1.287l-4.668-2.743a32.96 32.96 0 0 1-3.53 3.528l2.626 4.67a3.548 3.548 0 0 1-1.356 4.834l-4.038 2.22c-1.682.964-3.852.363-4.823-1.328l-2.573-4.585a29.61 29.61 0 0 1-4.308 1.192v5.213C46.067 80.442 44.491 82 42.563 82"/>
        </g>
        <path fill="#1C3A54" d="M50.54 43.283a1.109 1.109 0 0 1-1.108-1.108v-8.333a1.107 1.107 0 1 1 2.216 0v8.333c0 .612-.496 1.108-1.108 1.108M29.73 51.926a1.109 1.109 0 0 1-1.108-1.108V33.842a1.107 1.107 0 1 1 2.216 0v16.976c0 .612-.497 1.108-1.108 1.108M40.368 51.926a1.109 1.109 0 0 1-1.108-1.108V33.842a1.107 1.107 0 1 1 2.216 0v16.976c0 .612-.496 1.108-1.108 1.108"/>
        <path fill="#1C3A54" d="M50.54 43.438H30.195a1.107 1.107 0 1 1 0-2.216H50.54a1.109 1.109 0 0 1 0 2.216"/>
    </g>
</svg>
