<svg xmlns="http://www.w3.org/2000/svg" xmlns:xlink="http://www.w3.org/1999/xlink" width="82" height="23" viewBox="0 0 82 23">
    <defs>
        <path id="a" d="M0 .664H81.44v20.292H0z"/>
    </defs>
    <g fill="none" fill-rule="evenodd">
        <path fill="#FFF" d="M75.604 20.856a9.853 9.853 0 0 0-.993-4.116 9.713 9.713 0 0 0-5.262-4.797v7.636H15.841v-4.005H.911l4.315-9.07h10.615v-3.87h53.508v4.4c4.052.97 7.478 3.716 9.362 7.505.9 1.86 1.4 3.891 1.467 5.964l-4.574.353z"/>
        <g transform="translate(0 .811)">
            <mask id="b" fill="#fff">
                <use xlink:href="#a"/>
            </mask>
            <path fill="#1C3A54" d="M69.528 9.913c.127 0 .252.022.373.068a10.75 10.75 0 0 1 5.854 5.298c.525 1.065.87 2.229 1.021 3.412l2.43-.186a13.441 13.441 0 0 0-1.28-4.435c-1.74-3.474-4.892-5.985-8.644-6.877a1.09 1.09 0 0 1-.833-1.063V2.85H17.09v2.753c0 .606-.484 1.094-1.08 1.094h-9.94L2.8 13.519h13.21c.596 0 1.08.49 1.08 1.093v2.89h51.358v-6.495a1.1 1.1 0 0 1 .461-.897c.184-.131.4-.197.618-.197m6.255 11.043c-.267 0-.526-.1-.725-.284a1.107 1.107 0 0 1-.354-.785 8.66 8.66 0 0 0-.878-3.628 8.62 8.62 0 0 0-3.22-3.52v5.855c0 .604-.483 1.094-1.078 1.094H16.012c-.598 0-1.08-.49-1.08-1.094v-2.888H1.08c-.373 0-.718-.193-.915-.512a1.11 1.11 0 0 1-.056-1.058l4.316-9.01a1.08 1.08 0 0 1 .971-.616h9.538V1.757c0-.606.481-1.093 1.079-1.093h53.516c.595 0 1.079.487 1.079 1.093V5.29c4.005 1.196 7.345 4.001 9.248 7.802a15.717 15.717 0 0 1 1.584 6.385 1.094 1.094 0 0 1-.997 1.128l-4.575.35c-.028.002-.056.002-.084.002" mask="url(#b)"/>
        </g>
        <path fill="#1C3A54" d="M23.689 6.296a.893.893 0 1 1 0 1.786.893.893 0 0 1 0-1.786M23.689 13.586a.892.892 0 1 1 .002 1.784.892.892 0 0 1-.002-1.784M29.156 6.296a.893.893 0 1 1-.001 1.786.893.893 0 0 1 0-1.786M29.156 13.586a.892.892 0 1 1 .001 1.784.892.892 0 0 1-.001-1.784M60.133 6.296a.893.893 0 1 1 0 1.786.893.893 0 0 1 0-1.786M60.133 13.586a.892.892 0 1 1 .002 1.784.892.892 0 0 1-.002-1.784M26.422 9.941a.892.892 0 1 1 0 1.784.892.892 0 1 1 0-1.784M32.8 9.941a.892.892 0 1 1 0 1.784.892.892 0 1 1 0-1.784M35.533 6.296a.893.893 0 1 1 0 1.786.893.893 0 0 1 0-1.786M35.533 13.586a.892.892 0 1 1 .002 1.784.892.892 0 0 1-.002-1.784M41.911 6.296a.893.893 0 1 1 0 1.786.893.893 0 0 1 0-1.786M41.911 13.586a.892.892 0 1 1 .002 1.784.892.892 0 0 1-.002-1.784M38.267 9.941a.892.892 0 1 1 0 1.784.892.892 0 1 1 0-1.784M44.644 9.941a.892.892 0 1 1 0 1.784.892.892 0 1 1 0-1.784M47.379 6.296c.494 0 .89.4.89.893a.892.892 0 1 1-.891-.893M47.379 13.586c.494 0 .89.399.89.893a.889.889 0 0 1-.89.89.892.892 0 0 1 0-1.784M53.756 6.296a.893.893 0 1 1-.001 1.786.893.893 0 0 1 0-1.786M53.756 13.586a.892.892 0 1 1 .001 1.784.892.892 0 0 1-.001-1.784M51.021 9.941a.892.892 0 1 1 .003 1.784.892.892 0 0 1-.003-1.784M57.4 9.941a.892.892 0 1 1 0 1.784.892.892 0 1 1 0-1.784"/>
    </g>
</svg>
