<svg xmlns="http://www.w3.org/2000/svg" xmlns:xlink="http://www.w3.org/1999/xlink" width="82" height="81" viewBox="0 0 82 81">
    <defs>
        <path id="hoekdnbtga" d="M0 0.642L81.847 0.642 81.847 33.17 0 33.17z"/>
    </defs>
    <g fill="none" fill-rule="evenodd">
        <g>
            <path fill="#0FAFE6" d="M5.125 74.825L11.275 74.825 11.275 43.05 5.125 43.05zM14.35 74.825L20.5 74.825 20.5 57.4 14.35 57.4zM22.55 74.825L28.7 74.825 28.7 51.25 22.55 51.25zM31.775 74.825L37.925 74.825 37.925 48.175 31.775 48.175z"/>
            <g>
                <path fill="#1C3A54" d="M39.74 78.98H1.82c-.611 0-1.107-.497-1.107-1.109V41.392c0-.611.496-1.108 1.108-1.108.614 0 1.108.497 1.108 1.108v35.371H39.74c.612 0 1.108.497 1.108 1.108 0 .612-.496 1.109-1.108 1.109"/>
                <path fill="#0FAFE6" d="M77.194 59.367c.013-7.688-6.21-13.927-13.896-13.94h-.022v13.94h13.918z"/>
                <path fill="#1C3A54" d="M59.575 45.243c-8.735.572-15.667 7.86-15.667 16.739 0 9.25 7.524 16.777 16.775 16.777 8.88 0 16.17-6.933 16.741-15.669H60.683c-.612 0-1.108-.496-1.108-1.108v-16.74zm1.108 35.732c-10.474 0-18.991-8.521-18.991-18.993 0-10.474 8.517-18.993 18.99-18.993.612 0 1.109.496 1.109 1.108v16.777h16.777c.613 0 1.108.494 1.108 1.108 0 10.472-8.52 18.993-18.993 18.993z"/>
                <path fill="#FFF" d="M65.16 12.516c-.886-.08-1.733-.41-2.44-.953-7.854-6.02-17.388-9.443-27.279-9.796-7.557-.173-15.077 1.09-22.162 3.723l-.731.333-9.796-.133c-.869-.038-1.605.634-1.642 1.503-.027.565.255 1.099.733 1.4l3.502 2.04c-2.653 2.74-4.105 6.424-4.036 10.238v3.679c.027 4.166 3.415 7.526 7.582 7.513h64.268c4.19 0 7.58-.51 7.58-4.698v-4.123c0-8.333-11.5-10.283-15.578-10.726"/>
                <g>
                    <mask id="0nbx2ro2rb" fill="#fff">
                        <use xlink:href="#hoekdnbtga"/>
                    </mask>
                    <path fill="#1C3A54" d="M2.711 6.797c-.277 0-.483.195-.495.443-.008.168.076.326.216.414l4.692 2.733-.984 1.015c-2.43 2.511-3.788 5.955-3.721 9.448v3.7c.02 3.531 2.912 6.403 6.447 6.403H73.16c4.898 0 6.472-.87 6.472-3.588v-4.124c0-7.247-10.19-9.144-14.583-9.623-1.095-.1-2.132-.505-3.003-1.179-7.715-5.91-16.93-9.22-26.645-9.565-7.43-.157-14.752 1.06-21.737 3.655l-.884.405-10.044-.137H2.71zM8.864 33.17c-4.75 0-8.635-3.857-8.661-8.613v-3.685c-.067-3.595 1.168-7.156 3.42-9.962L1.283 9.551C.437 9.017-.04 8.102.004 7.141.066 5.665 1.358 4.52 2.8 4.582l9.514.128.508-.228C20.14 1.759 27.735.48 35.465.658c10.194.363 19.848 3.83 27.929 10.024.543.419 1.187.669 1.863.731h.023c4.982.543 16.568 2.781 16.568 11.828v4.124c0 5.805-5.651 5.805-8.688 5.805H8.864z" mask="url(#0nbx2ro2rb)"/>
                </g>
                <path fill="#FFF" d="M65.026 22.157c4.688 0 8.488 3.8 8.488 8.488 0 4.687-3.8 8.488-8.488 8.488-4.687 0-8.488-3.801-8.488-8.488 0-4.688 3.8-8.488 8.488-8.488"/>
                <path fill="#1C3A54" d="M65.026 23.265c-4.069 0-7.38 3.31-7.38 7.38s3.311 7.38 7.38 7.38c4.07 0 7.38-3.31 7.38-7.38s-3.31-7.38-7.38-7.38m0 16.976c-5.292 0-9.596-4.304-9.596-9.596 0-5.293 4.304-9.596 9.596-9.596 5.293 0 9.596 4.303 9.596 9.596 0 5.292-4.303 9.596-9.596 9.596"/>
                <path fill="#0FAFE6" d="M65.026 26.944c2.046 0 3.701 1.658 3.701 3.701s-1.655 3.701-3.7 3.701c-2.044 0-3.702-1.658-3.702-3.701s1.658-3.701 3.701-3.701"/>
                <path fill="#FFF" d="M15.383 22.157c4.687 0 8.488 3.8 8.488 8.488 0 4.687-3.8 8.488-8.488 8.488-4.687 0-8.488-3.801-8.488-8.488 0-4.688 3.8-8.488 8.488-8.488"/>
                <path fill="#1C3A54" d="M15.383 23.265c-4.069 0-7.38 3.31-7.38 7.38s3.311 7.38 7.38 7.38c4.07 0 7.38-3.31 7.38-7.38s-3.31-7.38-7.38-7.38m0 16.976c-5.292 0-9.596-4.304-9.596-9.596 0-5.293 4.304-9.596 9.596-9.596 5.293 0 9.596 4.303 9.596 9.596 0 5.292-4.303 9.596-9.596 9.596"/>
                <path fill="#0FAFE6" d="M15.383 26.944c2.044 0 3.701 1.658 3.701 3.701s-1.657 3.701-3.7 3.701c-2.044 0-3.702-1.658-3.702-3.701s1.658-3.701 3.701-3.701M55.44 12.87H36.6c-.35.002-.68-.143-.886-.393L31.393 7.64c-.614-.677-.496-1.666.266-2.212.28-.199.618-.319.975-.344 8.446-.577 16.808 1.842 23.248 6.725.282.226.304.611.051.86-.128.125-.306.198-.494.201"/>
            </g>
        </g>
    </g>
</svg>
