<svg xmlns="http://www.w3.org/2000/svg" xmlns:xlink="http://www.w3.org/1999/xlink" width="88" height="98" viewBox="0 0 88 98">
    <defs>
        <path id="iboocta0ea" d="M0 0.996L13.385 0.996 13.385 16.169 0 16.169z"/>
        <path id="2epb42576c" d="M0 0.144L66.609 0.144 66.609 81.999 0 81.999z"/>
    </defs>
    <g fill="none" fill-rule="evenodd">
        <g>
            <g>
                <path fill="#1C3A54" d="M15.254 36.62c-.62 0-1.16-.46-1.243-1.092-.09-.686.392-1.316 1.08-1.409l15.968-2.107c.678-.097 1.318.392 1.408 1.08.093.688-.391 1.318-1.08 1.409L15.42 36.61c-.055.007-.113.01-.165.01M13.254 42.62c-.62 0-1.157-.457-1.243-1.084-.092-.685.392-1.311 1.077-1.404l15.968-2.123c.696-.082 1.319.392 1.411 1.072.093.684-.391 1.313-1.077 1.406L13.422 42.61c-.057.007-.113.01-.168.01M10.254 49.62c-.62 0-1.16-.46-1.243-1.092-.09-.686.392-1.316 1.08-1.409l15.968-2.106c.683-.1 1.319.392 1.409 1.08.09.687-.392 1.318-1.08 1.408L10.42 49.61c-.055.007-.113.01-.165.01M8.252 56.62c-.62 0-1.158-.46-1.241-1.092-.09-.685.391-1.318 1.078-1.408l15.972-2.109c.697-.092 1.317.392 1.407 1.082.09.685-.391 1.318-1.078 1.408L8.418 56.61c-.058.007-.113.01-.166.01M6.252 62.62c-.62 0-1.158-.46-1.241-1.092-.09-.685.391-1.317 1.078-1.408l15.972-2.108c.707-.097 1.317.392 1.407 1.082.09.685-.391 1.317-1.078 1.408L6.418 62.61c-.058.007-.113.01-.166.01M5.254 69.62c-.62 0-1.16-.46-1.243-1.092-.09-.685.392-1.318 1.08-1.408l15.968-2.109c.685-.092 1.318.392 1.408 1.082.093.685-.391 1.318-1.08 1.408L5.42 69.61c-.055.007-.113.01-.165.01M2.254 76.62c-.62 0-1.157-.457-1.243-1.083-.092-.681.392-1.31 1.077-1.4l15.968-2.12c.693-.115 1.319.389 1.411 1.07.093.68-.391 1.31-1.077 1.402L2.422 76.607c-.057.01-.113.013-.168.013"/>
                <path fill="#1C3A54" d="M18.237 34.93c-.03 0-.057 0-.09-.003-.679-.047-1.193-.605-1.144-1.253.247-3.354 3.28-5.9 6.86-5.658 2.83.188 5.166 2.076 5.808 4.699.156.631-.257 1.262-.922 1.41-.672.148-1.33-.246-1.483-.875-.398-1.617-1.834-2.778-3.576-2.895-2.141-.14-4.07 1.42-4.222 3.484-.045.617-.589 1.09-1.231 1.09M10.342 81.085c-3.258 0-6.043-2.512-6.337-5.833-.06-.679.439-1.278 1.116-1.337.67-.032 1.268.441 1.33 1.12.189 2.156 2.083 3.745 4.24 3.567 2.143-.192 3.736-2.104 3.544-4.263-.059-.678.44-1.278 1.117-1.337.677-.035 1.27.441 1.327 1.12.311 3.513-2.28 6.624-5.773 6.938-.189.017-.378.025-.564.025"/>
                <path fill="#3FA9F5" d="M24.89 27.773c-.283-.003-.566-.047-.84-.13-.755-.202-1.38-.73-1.706-1.437-.367-.672-.446-1.466-.21-2.195.378-1.196 1.497-2.011 2.757-2.011.257.013.514.057.76.13 1.54.421 2.442 2.002 2.02 3.532-.355 1.285-1.55 2.158-2.885 2.11h.105z"/>
                <path fill="#1C3A54" d="M25.038 21c-2.228-.002-4.035 1.798-4.038 4.025-.003 1.773 1.157 3.34 2.853 3.858.383.131.782.196 1.185.202 1.772 0 3.337-1.154 3.856-2.846.328-1.02.23-2.129-.277-3.073-.688-1.34-2.072-2.178-3.579-2.166m0 2.519c.151-.026.305-.026.454 0 .791.224 1.247 1.045 1.023 1.836-.005.017-.008.035-.015.053-.2.64-.789 1.08-1.462 1.082-.151.023-.303.023-.454 0-.794-.264-1.23-1.115-.983-1.914.197-.627.78-1.055 1.437-1.057"/>
                <path fill="#1C3A54" d="M26.692 8c-.423.002-.836.103-1.205.293-.6.296-1.049.807-1.257 1.419l-1.923 5.892c-.51 1.462-.38 3.056.359 4.426.73 1.3 1.977 2.269 3.462 2.69.595.185 1.218.285 1.847.293 2.67.058 5.057-1.577 5.847-4.01l1.923-5.893c.416-1.29-.34-2.658-1.692-3.056l-6.617-1.956c-.246-.037-.498-.037-.744 0V8zm-.077 2.42l6.591 1.957-1.949 5.892c-.538 1.707-2.426 2.675-4.216 2.164-.013-.005-.028-.007-.041-.012-1.798-.538-2.798-2.362-2.234-4.076 0-.003.003-.005.003-.007l1.923-5.893-.077-.024z"/>
                <path fill="#0FAFE6" d="M5.384 92.704c-.452-.022-.897-.124-1.316-.297-2.302-.748-3.586-3.284-2.87-5.672l1.794-5.969c.094-.307.3-.567.574-.718.187-.055.383-.062.574-.025h.335l6.074 1.957c.63.2.985.891.793 1.545-.002.005-.004.01-.004.015l-1.794 5.97c-.55 1.901-2.243 3.202-4.16 3.194"/>
                <g transform="translate(0 78)">
                    <mask id="g3rbwlt0ub" fill="#fff">
                        <use xlink:href="#iboocta0ea"/>
                    </mask>
                    <path fill="#1C3A54" d="M4.54.999c-1.136-.052-2.162.66-2.502 1.732L.261 8.693c-.948 3.042.761 6.269 3.83 7.227.567.17 1.158.254 1.75.25 2.543.017 4.798-1.612 5.556-4.01l1.877-5.964c.195-.626.132-1.302-.175-1.881-.293-.594-.831-1.037-1.477-1.213L5.266 1.147c-.24-.047-.485-.047-.725 0V1zm0 2.475l6.356 1.955-1.876 5.964c-.438 1.371-1.724 2.304-3.178 2.302-.34.012-.678-.04-1.001-.151-1.744-.53-2.723-2.359-2.185-4.081l.008-.025L4.54 3.474z" mask="url(#g3rbwlt0ub)"/>
                </g>
                <path fill="#0FAFE6" d="M36.975 11.394c-.352 0-.702-.049-1.04-.148L24.498 7.79c-.9-.27-1.65-.884-2.08-1.704-.448-.802-.54-1.748-.253-2.617C22.595 2.005 23.972.998 25.537 1c.36.002.72.052 1.065.148l11.439 3.457c.892.284 1.638.893 2.08 1.703.854 1.704.129 3.758-1.621 4.59-.475.227-.997.346-1.525.348v.148z"/>
                <path fill="#1C3A54" d="M25.755.046C23.151.024 21.023 2.07 21 4.616c-.02 2.049 1.35 3.864 3.358 4.454l11.251 3.439c.454.126.923.19 1.397.195 2.604.036 4.745-1.998 4.782-4.544.028-2.06-1.342-3.888-3.36-4.48L27.152.046c-.464-.061-.933-.061-1.397 0m0 2.439c.222-.037.452-.037.674 0l11.25 3.414c1.173.398 1.794 1.649 1.385 2.793-.304.863-1.125 1.45-2.058 1.475-.215.037-.434.037-.649 0l-11.25-3.414c-1.173-.395-1.794-1.647-1.39-2.793.304-.856 1.113-1.441 2.038-1.475"/>
            </g>
            <g>
                <g>
                    <path fill="#FFF" d="M33.596 82c-4.972-1.632-9.611-4.1-13.71-7.292C7.815 65.203.86 50.856 1.002 35.743v-21.74c11.783-.53 23.132-4.476 32.594-11.336C43.032 9.7 54.458 13.743 66.331 14.252v21.49c.142 15.1-6.801 29.436-18.855 38.938-4.158 3.2-8.854 5.677-13.88 7.32" transform="translate(21 15) translate(0 .288)"/>
                    <g transform="translate(21 15) translate(0 .288)">
                        <mask id="x90gtj0vvd" fill="#fff">
                            <use xlink:href="#2epb42576c"/>
                        </mask>
                        <path fill="#1C3A54" d="M2.217 14.004V36.75c-.107 13.917 6.056 26.902 16.91 35.636 4 3.187 8.512 5.57 13.407 7.078l.778.263.726-.252c4.933-1.519 9.445-3.902 13.448-7.091 10.849-8.732 17.013-21.717 16.907-35.625V14.092h-2.638c-15.357-.327-23.82-6.88-26.747-9.68l-1.736-1.656-1.874 1.68c-2.23 2.114-10.814 9.114-26.692 9.568h-2.49zm31.099 67.995c-.122 0-.241-.02-.357-.057l-1.107-.376c-5.132-1.58-9.89-4.092-14.112-7.456C6.352 64.947-.111 51.328.002 36.741V12.898c0-.61.496-1.105 1.107-1.105h3.566c15.06-.429 23.112-6.98 25.22-8.98L32.553.427c.432-.384 1.09-.375 1.506.025l2.483 2.365c2.135 2.047 10.273 8.747 25.238 9.065h3.722c.611 0 1.107.496 1.107 1.106V36.75c.111 14.578-6.353 28.197-17.736 37.358-4.224 3.366-8.982 5.878-14.145 7.467l-1.05.365c-.117.04-.24.06-.361.06z" mask="url(#x90gtj0vvd)"/>
                    </g>
                    <path fill="#1C3A54" d="M33 76c-4.381-1.38-8.471-3.551-12.067-6.407-9.994-8.042-15.74-20.212-15.597-33.023V17.306C20.933 16.712 29.889 10.063 33 7.333c3.397 3.149 12.288 9.555 27.664 10.061V36.68c.141 12.74-5.546 24.847-15.442 32.891C41.582 72.451 37.436 74.628 33 76" transform="translate(21 15) translate(0 .288)"/>
                    <path fill="#0FAFE6" d="M6.226 18.759v18.16c-.14 12.529 5.437 24.216 15.309 32.073 3.433 2.697 7.293 4.748 11.47 6.091 4.231-1.337 8.143-3.396 11.625-6.118 9.758-7.848 15.284-19.487 15.144-31.925V18.85c-14.475-.732-23.136-6.517-26.792-9.627-4.312 3.52-12.962 8.772-26.756 9.536M33 77.333c-.113 0-.227-.017-.334-.052-4.565-1.42-8.779-3.633-12.524-6.575C9.736 62.416 3.854 50.1 4.002 36.909V17.71c0-.59.472-1.073 1.07-1.097 15.146-.571 24.063-6.955 27.194-9.672.425-.373 1.07-.367 1.49.02 3.011 2.761 11.688 9.235 27.167 9.74.598.02 1.074.505 1.074 1.097v19.23c.147 13.097-5.677 25.366-15.975 33.646-3.8 2.973-8.065 5.194-12.693 6.608-.107.033-.218.05-.329.05" transform="translate(21 15) translate(0 .288)"/>
                    <path fill="#FFF" d="M33.611 74c-3.907-1.303-7.552-3.273-10.772-5.821C13.355 60.59 7.89 49.137 8.002 37.072V19.717c9.257-.424 18.175-3.574 25.61-9.05 7.413 5.615 16.391 8.842 25.72 9.248v17.157c.11 12.054-5.344 23.499-14.815 31.085C41.25 70.71 37.56 72.689 33.61 74" transform="translate(21 15) translate(0 .288)"/>
                    <path fill="#1C3A54" d="M8.88 20.6v16.435c-.108 11.892 5.128 22.997 14.365 30.468 3.017 2.414 6.392 4.281 10.033 5.554 3.687-1.281 7.11-3.158 10.173-5.585 9.215-7.463 14.444-18.558 14.335-30.429V20.801c-8.9-.593-17.34-3.683-24.517-8.985-7.18 5.16-15.574 8.182-24.389 8.784m24.398 54.733c-.12 0-.239-.02-.354-.06-4.021-1.353-7.746-3.389-11.066-6.046-9.77-7.903-15.305-19.64-15.19-32.203V19.556c0-.591.465-1.078 1.056-1.107 9.033-.418 17.642-3.493 24.893-8.896.398-.297.94-.292 1.333.009 7.238 5.544 15.88 8.686 24.99 9.087.592.026 1.058.513 1.058 1.106v17.28c.115 12.538-5.412 24.267-15.165 32.165-3.373 2.669-7.14 4.71-11.203 6.074-.115.04-.235.06-.352.06" transform="translate(21 15) translate(0 .288)"/>
                    <path fill="#FFF" d="M30.2 40.81v2.481l2.553 2.898-2.553 2.897 2.553 2.898-2.553 2.898v4.522l3.477 3.93 3.5-3.998V40.459c4.696-2.118 6.782-7.63 4.658-12.315-2.121-4.685-7.647-6.766-12.344-4.65-4.696 2.119-6.783 7.631-4.661 12.316 1.043 2.302 2.982 4.085 5.37 4.934v.066z" transform="translate(21 15) translate(0 .288)"/>
                    <path fill="#1C3A54" d="M31.252 58.672l2.425 2.676 2.457-2.738V39.477l.661-.291c2.047-.902 3.613-2.526 4.407-4.571.792-2.048.72-4.274-.207-6.267-.924-1.996-2.591-3.518-4.695-4.291-2.101-.773-4.387-.703-6.434.2-4.23 1.859-6.112 6.722-4.202 10.837.936 2.018 2.7 3.6 4.841 4.342l.747.26v2.9l2.983 3.306-2.61 2.889 2.61 2.893-2.983 3.303v3.685zm2.434 5.995l-4.684-5.165v-5.34l2.239-2.478-2.612-2.893 2.612-2.89-2.239-2.479v-2.214c-2.375-1.03-4.312-2.894-5.39-5.211-2.42-5.218-.031-11.38 5.327-13.738 2.596-1.142 5.492-1.23 8.158-.252 2.663.979 4.778 2.91 5.95 5.438 1.174 2.526 1.267 5.347.259 7.943-.918 2.37-2.65 4.29-4.923 5.476v18.568l-4.697 5.235z" transform="translate(21 15) translate(0 .288)"/>
                    <path fill="#0FAFE6" d="M33.333 26C34.806 26 36 27.194 36 28.667c0 1.472-1.194 2.666-2.667 2.666-1.472 0-2.666-1.194-2.666-2.666 0-1.473 1.194-2.667 2.666-2.667" transform="translate(21 15) translate(0 .288)"/>
                </g>
            </g>
        </g>
    </g>
</svg>
