<svg xmlns="http://www.w3.org/2000/svg" xmlns:xlink="http://www.w3.org/1999/xlink" width="82" height="66" viewBox="0 0 82 66">
    <defs>
        <path id="3ltu1jjnqa" d="M1.641 1.165L71.944 1.165 71.944 53.947 1.641 53.947z"/>
    </defs>
    <g fill="none" fill-rule="evenodd">
        <g>
            <path fill="#1C3A54" d="M41.95 13.056c-.596 0-1.08-.483-1.08-1.079V5.18c0-.598.484-1.08 1.08-1.08.595 0 1.078.482 1.078 1.08v6.797c0 .596-.483 1.079-1.079 1.079M36.188 13.056c-.596 0-1.08-.483-1.08-1.079V5.18c0-.598.484-1.08 1.08-1.08.595 0 1.079.482 1.079 1.08v6.797c0 .596-.484 1.079-1.08 1.079M12.818 33.124H6.042c-.596 0-1.08-.483-1.08-1.079s.484-1.079 1.08-1.079h6.776c.595 0 1.079.483 1.079 1.079s-.484 1.079-1.08 1.079M12.818 38.885H6.042c-.596 0-1.08-.483-1.08-1.079 0-.595.484-1.079 1.08-1.079h6.776c.595 0 1.079.484 1.079 1.08 0 .595-.484 1.078-1.08 1.078" transform="translate(0 .288)"/>
            <path fill="#0FAFE6" d="M50.452 3.733v.151c0 1.468-1.189 2.654-2.654 2.654H30.32c-1.467 0-2.656-1.186-2.656-2.654v-.15c0-1.466 1.189-2.655 2.656-2.655H47.8c1.464 0 2.653 1.189 2.653 2.654" transform="translate(0 .288)"/>
            <path fill="#1C3A54" d="M30.32 2.158c-.87 0-1.576.708-1.576 1.575 0 1.02.705 1.726 1.575 1.726h17.479c.867 0 1.575-.705 1.575-1.575v-.15c0-.868-.708-1.576-1.575-1.576H30.319zm17.478 5.46H30.319c-2.059 0-3.733-1.675-3.733-3.734C26.586 1.674 28.26 0 30.319 0h17.479c2.059 0 3.733 1.675 3.733 3.733v.151c0 2.059-1.674 3.733-3.733 3.733z" transform="translate(0 .288)"/>
            <path fill="#FFF" d="M71.966 16.335v6.991h-6.301V15.43c-.013-1.541-1.265-2.784-2.805-2.784H22.895c-1.538 0-2.783 1.247-2.783 2.784v1.1c0 1.55-1.256 2.805-2.805 2.805h-3.151c-1.54 0-2.792 1.243-2.805 2.784v31.548h16.831c2.091.048 3.766 1.75 3.777 3.841v1.038c-.011 2.599 2.084 4.713 4.682 4.724H54.811c2.753 0 4.984-2.231 4.984-4.985V53.666h1.835c2.181 0 3.949-1.77 3.949-3.946v-.024h6.3v4.534h3.863c2.074 0 3.755-1.684 3.755-3.757V20.09c0-2.074-1.68-3.755-3.755-3.755h-3.776z" transform="translate(0 .288)"/>
            <g transform="translate(0 .288) translate(8.632 10.4)">
                <mask id="vwvf5e6obb" fill="#fff">
                    <use xlink:href="#3ltu1jjnqa"/>
                </mask>
                <path fill="#1C3A54" d="M3.799 42.186H19.55c2.72.063 4.84 2.22 4.855 4.914v1.044c-.004.974.37 1.886 1.051 2.573.68.686 1.589 1.068 2.557 1.072H46.18c2.153 0 3.905-1.75 3.905-3.904v-4.62c0-.595.484-1.079 1.08-1.079h1.834c1.581 0 2.87-1.288 2.87-2.867 0-.596.483-1.103 1.078-1.103h6.302c.595 0 1.078.483 1.078 1.079v3.455h2.784c1.474 0 2.676-1.202 2.676-2.676V9.689c0-1.476-1.202-2.676-2.676-2.676h-2.697v5.912c0 .598-.484 1.08-1.08 1.08h-6.3c-.596 0-1.08-.482-1.08-1.08V5.027c-.008-.934-.78-1.704-1.725-1.704H14.264c-.94 0-1.704.766-1.704 1.704V6.13c0 2.14-1.744 3.882-3.885 3.882h-3.15c-.945 0-1.72.768-1.726 1.714v30.46zm42.38 11.76H28.033c-1.571-.006-3.021-.612-4.109-1.71-1.088-1.099-1.683-2.55-1.674-4.096v-1.034c-.01-1.51-1.205-2.725-2.724-2.762H2.72c-.596 0-1.08-.483-1.08-1.079V11.717c.016-2.132 1.76-3.863 3.885-3.863h3.15c.952 0 1.727-.774 1.727-1.724V5.027c0-2.13 1.732-3.862 3.862-3.862H54.23c2.123 0 3.866 1.73 3.884 3.854v6.827h4.143V5.934c0-.596.481-1.08 1.079-1.08h3.776c2.665 0 4.834 2.17 4.834 4.835v30.385c0 2.665-2.169 4.834-4.834 4.834H63.25c-.598 0-1.08-.484-1.08-1.08v-3.454h-4.26c-.489 2.274-2.507 3.97-4.91 3.97h-.756v3.52c0 3.362-2.72 6.083-6.063 6.083z" mask="url(#vwvf5e6obb)"/>
            </g>
            <path fill="#0FAFE6" d="M3.885 48.575h-.151c-1.468 0-2.654-1.19-2.654-2.655V23.953c0-1.465 1.186-2.654 2.654-2.654h.15c1.466 0 2.655 1.189 2.655 2.654V45.92c0 1.466-1.189 2.655-2.654 2.655" transform="translate(0 .288)"/>
            <path fill="#1C3A54" d="M3.885 22.378c-1.02 0-1.726.707-1.726 1.575V45.92c0 .868.705 1.575 1.575 1.575h.15c.868 0 1.576-.707 1.576-1.575V23.953c0-.868-.708-1.575-1.575-1.575m0 27.275h-.151C1.675 49.653 0 47.98 0 45.92V23.953c0-2.059 1.674-3.733 3.733-3.733 2.21 0 3.884 1.674 3.884 3.733V45.92c0 2.059-1.675 3.733-3.733 3.733" transform="translate(0 .288)"/>
            <path fill="#FFF" d="M36.274 39.1c-4.758-.613-9.591-.004-14.047 1.77v-3.13c0-3.517 4.315-7.12 8.221-7.034 4.344.037 8.658.727 12.796 2.052-.194.84-.431 1.66-.647 2.48-.883 2.658-3.554 4.29-6.323 3.862" transform="translate(0 .288)"/>
            <path fill="#1C3A54" d="M30.324 31.785c-1.754 0-3.726.876-5.19 2.309-1.163 1.135-1.827 2.464-1.827 3.646v1.587c4.201-1.418 8.7-1.865 13.105-1.297.008.002.02.002.026.004 2.255.354 4.415-.969 5.135-3.138l.184-.688.194-.719c-3.742-1.098-7.609-1.67-11.512-1.704h-.115m-8.096 10.163c-.214 0-.425-.062-.607-.183-.295-.203-.472-.537-.472-.896V37.74c0-1.784.878-3.627 2.477-5.19 1.925-1.883 4.484-2.95 6.845-2.923 4.443.039 8.856.744 13.103 2.104.535.17.85.725.723 1.27-.138.599-.3 1.185-.458 1.768l-.198.742c-1.073 3.23-4.215 5.16-7.516 4.657-4.566-.591-9.23.002-13.498 1.705-.13.052-.265.075-.4.075" transform="translate(0 .288)"/>
            <path fill="#FFF" d="M40.59 29.973c.643-4.766.048-9.62-1.726-14.09h3.107c3.54 0 7.121 4.315 7.035 8.242-.045 4.35-.736 8.67-2.05 12.816-.863-.192-1.683-.43-2.503-.667-2.654-.874-4.288-3.539-3.863-6.3" transform="translate(0 .288)"/>
            <path fill="#1C3A54" d="M40.407 16.961c1.415 4.221 1.847 8.738 1.254 13.157-.003.006-.003.013-.005.02-.345 2.25.973 4.4 3.133 5.111.464.134.941.272 1.431.402 1.092-3.75 1.666-7.626 1.707-11.536.041-1.8-.844-3.837-2.307-5.335-1.133-1.156-2.462-1.819-3.649-1.819h-1.564zm6.549 21.06c-.078 0-.155-.007-.235-.025-.887-.2-1.729-.44-2.57-.686-3.2-1.053-5.13-4.197-4.629-7.49.615-4.568.039-9.25-1.662-13.54-.131-.333-.09-.708.113-1.004.2-.296.535-.473.89-.473h3.108c1.791 0 3.632.876 5.192 2.469 1.882 1.925 2.976 4.495 2.922 6.877-.048 4.448-.753 8.867-2.1 13.12-.144.456-.567.751-1.029.751z" transform="translate(0 .288)"/>
            <path fill="#FFF" d="M49.61 34.116c4.755.635 9.593.035 14.05-1.748v3.108c0 3.539-4.316 7.142-8.246 7.056-4.344-.034-8.657-.727-12.796-2.05.216-.841.431-1.661.669-2.481.87-2.672 3.547-4.318 6.322-3.885" transform="translate(0 .288)"/>
            <path fill="#1C3A54" d="M43.922 39.753c3.737 1.099 7.6 1.668 11.501 1.7 1.81.044 3.828-.845 5.324-2.308 1.165-1.142 1.832-2.477 1.832-3.669v-1.562c-4.201 1.42-8.699 1.856-13.114 1.273-.008-.002-.013-.004-.021-.004-2.247-.352-4.42.969-5.13 3.15-.135.464-.263.937-.392 1.42m11.633 3.86l-.164-.001c-4.443-.037-8.856-.745-13.1-2.102-.544-.175-.86-.74-.717-1.295.218-.854.436-1.685.678-2.516 1.046-3.22 4.201-5.157 7.511-4.65 4.556.604 9.225.026 13.496-1.683.328-.134.707-.091 1.005.11.296.2.473.535.473.893v3.107c0 1.796-.88 3.645-2.482 5.212-1.881 1.838-4.374 2.926-6.7 2.926" transform="translate(0 .288)"/>
            <path fill="#FFF" d="M45.38 43.18c-.652 4.756-.071 9.6 1.683 14.07h-3.129c-3.517 0-7.12-4.316-7.034-8.244.08-4.354.807-8.675 2.157-12.818.842.195 1.662.432 2.482.648 2.659.893 4.283 3.575 3.841 6.344" transform="translate(0 .288)"/>
            <path fill="#1C3A54" d="M39.784 37.48c-1.126 3.748-1.733 7.628-1.804 11.547-.039 1.784.846 3.819 2.311 5.317 1.135 1.16 2.462 1.825 3.643 1.825h1.592c-1.398-4.216-1.819-8.724-1.215-13.135l.002-.024c.363-2.257-.949-4.423-3.118-5.153l-.714-.19c-.233-.06-.464-.125-.697-.187m7.28 20.847h-3.13c-1.783 0-3.623-.878-5.184-2.473-1.888-1.93-2.98-4.495-2.928-6.87.082-4.463.824-8.883 2.21-13.131.175-.531.731-.84 1.269-.717.589.136 1.167.294 1.743.449l.768.207c3.237 1.086 5.158 4.249 4.636 7.546-.624 4.56-.063 9.234 1.62 13.517.13.33.087.706-.112 1-.2.295-.535.472-.891.472" transform="translate(0 .288)"/>
            <path fill="#0FAFE6" d="M42.834 28.333c4.398 0 7.963 3.565 7.963 7.963 0 4.397-3.565 7.962-7.963 7.962-4.397 0-7.962-3.565-7.962-7.962 0-4.398 3.565-7.963 7.962-7.963" transform="translate(0 .288)"/>
            <path fill="#1C3A54" d="M42.834 29.412c-3.795 0-6.883 3.088-6.883 6.884 0 3.795 3.088 6.883 6.883 6.883 3.796 0 6.884-3.088 6.884-6.883 0-3.796-3.088-6.884-6.884-6.884m0 15.925c-4.986 0-9.041-4.057-9.041-9.041 0-4.987 4.055-9.042 9.041-9.042 4.987 0 9.042 4.055 9.042 9.042 0 4.984-4.055 9.041-9.042 9.041" transform="translate(0 .288)"/>
            <path fill="#FFF" d="M42.834 32.519c2.087 0 3.777 1.692 3.777 3.776 0 2.087-1.69 3.777-3.777 3.777-2.084 0-3.776-1.69-3.776-3.777 0-2.084 1.692-3.776 3.776-3.776" transform="translate(0 .288)"/>
            <path fill="#1C3A54" d="M42.834 33.598c-1.486 0-2.697 1.21-2.697 2.697s1.21 2.698 2.697 2.698 2.698-1.21 2.698-2.698c0-1.486-1.21-2.697-2.698-2.697m0 7.553c-2.678 0-4.855-2.18-4.855-4.856 0-2.678 2.177-4.855 4.855-4.855 2.676 0 4.856 2.177 4.856 4.855 0 2.676-2.18 4.856-4.856 4.856" transform="translate(0 .288)"/>
        </g>
    </g>
</svg>
