<svg xmlns="http://www.w3.org/2000/svg" xmlns:xlink="http://www.w3.org/1999/xlink" width="82" height="83" viewBox="0 0 82 83">
    <defs>
        <path id="z8j39mbata" d="M0 0.208L43.092 0.208 43.092 22.251 0 22.251z"/>
        <path id="dav12198ic" d="M0.264 0.486L43.475 0.486 43.475 22.527 0.264 22.527z"/>
        <path id="6ams4asy5e" d="M0.19 0.002L22.089 0.002 22.089 43.126 0.19 43.126z"/>
    </defs>
    <g fill="none" fill-rule="evenodd">
        <g>
            <path fill="#0FAFE6" d="M41 8.36C23.001 8.36 8.36 23 8.36 41 8.36 58.999 23 73.64 41 73.64 58.999 73.64 73.64 59 73.64 41 73.64 23.001 59 8.36 41 8.36m0 67.566C21.742 75.926 6.074 60.258 6.074 41 6.074 21.742 21.742 6.074 41 6.074c19.258 0 34.926 15.668 34.926 34.926 0 19.258-15.668 34.926-34.926 34.926" transform="translate(0 .288)"/>
            <path fill="#1C3A54" d="M40.696 10.198c-16.819 0-30.498 13.682-30.498 30.498 0 16.82 13.68 30.499 30.498 30.499 16.82 0 30.499-13.68 30.499-30.499 0-16.816-13.68-30.498-30.499-30.498m0 63.298c-18.087 0-32.8-14.713-32.8-32.8 0-18.084 14.713-32.8 32.8-32.8 18.085 0 32.8 14.716 32.8 32.8 0 18.087-14.715 32.8-32.8 32.8" transform="translate(0 .288)"/>
            <path fill="#FFF" d="M30.89 46.034c-9.992-1.833-20.3-.734-29.675 3.166l.181-9.043c0-4.914 6.056-10.037 12.114-10.277 9.613-.526 19.243.722 28.401 3.676-.604 2.47-1.302 4.853-1.998 7.264-1.206 3.795-5.114 6.05-9.023 5.214" transform="translate(0 .288)"/>
            <g transform="translate(0 .288) translate(0 28.548)">
                <mask id="ucarnsfpob" fill="#fff">
                    <use xlink:href="#z8j39mbata"/>
                </mask>
                <path fill="#1C3A54" d="M17.804 2.529c-1.42 0-2.843.039-4.267.118-5.483.22-11.053 4.898-11.053 9.27l-.148 7.449c9.175-3.514 19.08-4.42 28.768-2.628l.032.007c3.353.728 6.668-1.21 7.706-4.506l.131-.464c.548-1.92 1.094-3.826 1.589-5.78C33.157 3.69 25.524 2.53 17.804 2.53M1.151 22.25c-.226 0-.454-.067-.647-.202-.322-.22-.51-.589-.504-.98l.182-9.176C.182 6.34 6.742.6 13.428.33c9.808-.545 19.517.733 28.869 3.787.573.186.905.786.762 1.378-.569 2.354-1.22 4.629-1.874 6.923l-.14.491c-1.404 4.467-5.856 7.074-10.376 6.107-9.822-1.823-19.871-.73-29.074 3.145-.143.06-.292.09-.444.09" mask="url(#ucarnsfpob)"/>
            </g>
            <path fill="#FFF" d="M35.819 30.928c1.873-9.99.824-20.309-3.019-29.713l9.059.181c4.892 0 10.028 6.052 10.268 12.103.509 9.62-.749 19.249-3.715 28.412-2.506-.574-4.893-1.271-7.277-1.967-3.839-1.168-6.148-5.085-5.316-9.016" transform="translate(0 .288)"/>
            <path fill="#1C3A54" d="M34.44 2.334c3.438 9.215 4.293 19.146 2.468 28.835 0 .01-.002.019-.005.028-.717 3.386 1.243 6.699 4.557 7.705 2.007.582 4.082 1.185 6.213 1.706 2.718-8.773 3.85-17.876 3.363-27.072-.221-5.484-4.851-11.052-9.182-11.052l-7.415-.15zm14.008 40.792c-.085 0-.17-.01-.256-.03-2.56-.585-5.015-1.298-7.39-1.989-4.475-1.358-7.116-5.815-6.155-10.375 1.846-9.818.816-19.899-2.976-29.146-.147-.359-.103-.766.116-1.086.22-.32.622-.502.972-.5l9.118.182c5.504 0 11.194 6.56 11.462 13.246.52 9.818-.756 19.546-3.794 28.901-.16.484-.606.797-1.097.797z" transform="translate(0 .288)"/>
            <path fill="#FFF" d="M51.11 35.357c9.992 1.833 20.3.733 29.675-3.164l-.181 9.041c0 4.915-6.056 10.038-12.114 10.278-9.613.526-19.243-.72-28.401-3.676.604-2.47 1.302-4.853 1.998-7.265 1.206-3.795 5.114-6.053 9.023-5.214" transform="translate(0 .288)"/>
            <g transform="translate(0 .288) translate(38.267 30.37)">
                <mask id="ag6wfxi0pd" fill="#fff">
                    <use xlink:href="#dav12198ic"/>
                </mask>
                <path fill="#1C3A54" d="M2.801 16.74c8.79 2.73 17.909 3.864 27.1 3.35 5.498-.221 11.084-4.899 11.084-9.27l.147-7.45C31.928 6.886 21.99 7.793 12.285 5.998l-.032-.007c-3.358-.73-6.687 1.208-7.726 4.506l-.133.464c-.55 1.92-1.097 3.827-1.593 5.78m22.814 5.786c-8.335 0-16.577-1.308-24.552-3.906-.575-.19-.91-.788-.766-1.377.572-2.357 1.223-4.632 1.878-6.925l.144-.492C3.724 5.355 8.202 2.747 12.72 3.72c9.847 1.816 19.924.733 29.157-3.144.355-.151.769-.11 1.092.11.323.221.512.592.505.982l-.182 9.175c0 5.556-6.58 11.294-13.284 11.563-1.468.081-2.93.12-4.394.12" mask="url(#ag6wfxi0pd)"/>
            </g>
            <path fill="#FFF" d="M46.181 51.072c-1.873 9.99-.824 20.309 3.019 29.713l-9.059-.181c-4.892 0-10.028-6.052-10.268-12.103-.509-9.62.751-19.249 3.713-28.412 2.508.574 4.894 1.271 7.279 1.967 3.839 1.168 6.148 5.085 5.316 9.016" transform="translate(0 .288)"/>
            <g transform="translate(0 .288) translate(27.94 38.874)">
                <mask id="vt0n7imstf" fill="#fff">
                    <use xlink:href="#6ams4asy5e"/>
                </mask>
                <path fill="#1C3A54" d="M5.977 2.522C3.253 11.3 2.122 20.404 2.612 29.592c.219 5.481 4.858 11.051 9.193 11.051l7.425.148c-3.444-9.214-4.3-19.142-2.472-28.832 0-.007.002-.016.005-.026.72-3.385-1.242-6.698-4.563-7.704-2.01-.584-4.088-1.187-6.223-1.707m14.957 40.605h-.021l-9.131-.182C6.268 42.945.573 36.383.303 29.698-.218 19.891 1.06 10.161 4.103.8c.184-.569.775-.905 1.354-.767 2.565.585 5.023 1.299 7.4 1.99 4.485 1.36 7.128 5.816 6.165 10.373-1.846 9.82-.817 19.896 2.98 29.143.148.359.104.766-.115 1.088-.215.313-.57.5-.953.5" mask="url(#vt0n7imstf)"/>
            </g>
            <path fill="#0FAFE6" d="M40.696 26.726c7.38 0 13.363 5.984 13.363 13.363s-5.984 13.363-13.363 13.363-13.363-5.984-13.363-13.363 5.984-13.363 13.363-13.363" transform="translate(0 .288)"/>
            <path fill="#1C3A54" d="M40.696 27.82c-6.766 0-12.269 5.503-12.269 12.269s5.503 12.27 12.27 12.27c6.765 0 12.269-5.504 12.269-12.27s-5.504-12.27-12.27-12.27m0 26.848c-8.038 0-14.577-6.54-14.577-14.578s6.54-14.578 14.577-14.578c8.038 0 14.578 6.54 14.578 14.578s-6.54 14.578-14.578 14.578" transform="translate(0 .288)"/>
            <path fill="#FFF" d="M40.393 35.23c2.852 0 5.163 2.31 5.163 5.163 0 2.854-2.311 5.163-5.163 5.163-2.852 0-5.163-2.31-5.163-5.163 0-2.852 2.31-5.163 5.163-5.163" transform="translate(0 .288)"/>
            <path fill="#1C3A54" d="M40.393 36.308c-2.252 0-4.085 1.833-4.085 4.085s1.833 4.084 4.085 4.084 4.084-1.832 4.084-4.084-1.832-4.085-4.084-4.085m0 10.462c-3.518 0-6.378-2.86-6.378-6.377 0-3.516 2.86-6.378 6.378-6.378 3.515 0 6.377 2.862 6.377 6.378 0 3.518-2.862 6.377-6.377 6.377" transform="translate(0 .288)"/>
            <path fill="#FFF" d="M74.269 59.302V7.816c0-1.968-1.568-3.564-3.507-3.564-1.936 0-3.507 1.596-3.507 3.564v51.486c-4.82 1.969-7.165 7.538-5.226 12.44 1.937 4.905 7.416 7.283 12.24 5.315 4.826-1.969 7.165-7.54 5.229-12.44-.958-2.422-2.844-4.342-5.229-5.315" transform="translate(0 .288)"/>
            <path fill="#1C3A54" d="M70.76 5.34c-1.32 0-2.394 1.085-2.394 2.419V59.33c0 .47-.283.894-.714 1.07-2.07.838-3.69 2.44-4.568 4.511-.875 2.071-.9 4.36-.068 6.452.83 2.092 2.417 3.73 4.467 4.614 2.048.882 4.315.905 6.386.069 2.07-.839 3.692-2.442 4.567-4.512.876-2.073.901-4.363.069-6.452-.844-2.124-2.534-3.83-4.636-4.683-.431-.175-.714-.599-.714-1.069V7.76c0-1.334-1.074-2.419-2.395-2.419m-.002 73.623c-1.416 0-2.83-.29-4.17-.868-2.612-1.127-4.63-3.211-5.688-5.872-2.087-5.247.234-11.194 5.185-13.638V7.76c0-2.605 2.098-4.722 4.675-4.722s4.675 2.117 4.675 4.722v50.826c2.342 1.161 4.21 3.181 5.186 5.639 1.058 2.66 1.026 5.578-.086 8.214-1.116 2.64-3.18 4.68-5.816 5.746-1.28.519-2.622.779-3.96.779" transform="translate(0 .288)"/>
            <path fill="#0FAFE6" d="M70.447 32.8h.024c.47 0 .85.359.85.8v29.986c0 .44-.38.8-.85.8h-.024c-.469 0-.85-.36-.85-.8V33.599c0-.44.381-.799.85-.799" transform="translate(0 .288)"/>
            <path fill="#0FAFE6" d="M70.763 63.17c2.516 0 4.556 2.04 4.556 4.555 0 2.516-2.04 4.556-4.556 4.556s-4.556-2.04-4.556-4.556c0-2.515 2.04-4.555 4.556-4.555" transform="translate(0 .288)"/>
        </g>
    </g>
</svg>
