<svg xmlns="http://www.w3.org/2000/svg" xmlns:xlink="http://www.w3.org/1999/xlink" width="102" height="89" viewBox="0 0 102 89">
    <defs>
        <path id="a" d="M0 .528h101.342v83.25H0z"/>
        <path id="c" d="M.189.139h63.445V87H.189z"/>
        <path id="e" d="M0 89h101V1H0z"/>
    </defs>
    <g fill="none" fill-rule="evenodd">
        <path fill="#0FAFE6" d="M89.693 1.888L35.75 60.642c-1.836 2.082-4.82 2.082-6.887.462l-.459-.462L11.42 42.368c-1.836-2.082-4.82-2.082-6.885-.462-.23 0-.23.23-.459.462L1.55 45.144c-2.067 2.314-2.067 5.552 0 7.865l26.855 29.147c1.836 2.08 4.82 2.08 6.887.461.229-.232.229-.232.459-.46L99.794 12.76c2.065-2.313 2.065-5.552 0-7.865L97.267 2.12C95.43.037 92.448.037 90.382 1.888c-.46-.233-.46 0-.69 0"/>
        <path fill="#0FAFE6" d="M68.002 13.304L68.144 3 85 19.883 74.668 20c-3.656.026-6.64-2.908-6.668-6.554 0-.047 0-.095.002-.142"/>
        <path fill="#1C3A54" d="M67.441 12.873v.138c.026 3.066 2.541 5.552 5.617 5.552h.04l7.774-.088L67.548 5.127l-.107 7.746zM73.063 21c-4.422 0-8.03-3.568-8.063-7.98v-.174l.148-10.644a1.22 1.22 0 1 1 2.085-.843L84.646 18.8c.344.348.45.868.265 1.32-.188.454-.626.751-1.117.758L73.122 21h-.06z"/>
        <g transform="translate(21 2)">
            <path fill="#1C3A54" d="M8.06 2.536c-3.025 0-5.487 2.474-5.487 5.514v71.038c0 3.04 2.462 5.514 5.486 5.514h47.704c3.026 0 5.486-2.473 5.486-5.514V18.999L44.823 2.536H8.059zM55.762 87H8.06C3.72 87 .19 83.45.19 79.088V8.098c0-4.411 3.531-7.96 7.87-7.96h37.258c.317 0 .62.125.844.35l17.124 17.166c.224.225.349.53.349.848v60.586c0 4.363-3.53 7.912-7.87 7.912z"/>
        </g>
        <path fill="#1C3A54" d="M30.493 30.646h13.014v-12.29H30.493v12.29zM44.755 33h-15.51C28.556 33 28 32.475 28 31.822V17.178c0-.65.556-1.178 1.245-1.178h15.51c.689 0 1.245.527 1.245 1.178v14.644c0 .653-.556 1.178-1.245 1.178zM30.493 53.646h13.014V41.354H30.493v12.292zM44.755 56h-15.51C28.556 56 28 55.473 28 54.824V40.176c0-.65.556-1.176 1.245-1.176h15.51c.689 0 1.245.525 1.245 1.176v14.648c0 .649-.556 1.176-1.245 1.176zM30.493 75.646h13.014V63.354H30.493v12.292zM44.755 78h-15.51C28.556 78 28 77.473 28 76.824V62.178c0-.653.556-1.178 1.245-1.178h15.51c.689 0 1.245.525 1.245 1.178v14.646c0 .649-.556 1.176-1.245 1.176zM54.32 23h17.36c1.283 0 2.32 1.12 2.32 2.5S72.963 28 71.68 28H54.32C53.037 28 52 26.88 52 25.5s1.037-2.5 2.32-2.5M54.32 67h17.36c1.283 0 2.32 1.12 2.32 2.5S72.963 72 71.68 72H54.32C53.037 72 52 70.88 52 69.5s1.037-2.5 2.32-2.5M54.32 45h17.36c1.283 0 2.32 1.12 2.32 2.5S72.963 50 71.68 50H54.32C53.037 50 52 48.88 52 47.5s1.037-2.5 2.32-2.5"/>
    </g>
</svg>
