<svg xmlns="http://www.w3.org/2000/svg" xmlns:xlink="http://www.w3.org/1999/xlink" width="82" height="72" viewBox="0 0 82 72">
    <defs>
        <path id="et2tsbd7ra" d="M0 2.108L81.813 2.108 81.813 63.257 0 63.257z"/>
        <path id="nohgxnnvvc" d="M0 69.465L81.813 69.465 81.813 0 0 0z"/>
    </defs>
    <g fill="none" fill-rule="evenodd">
        <g transform="translate(0 .836)">
            <g transform="translate(0 6.208)">
                <mask id="x297pzrfbb" fill="#fff">
                    <use xlink:href="#et2tsbd7ra"/>
                </mask>
                <path fill="#1C3A54" d="M4.706 4.451c-1.314 0-2.364 1.052-2.364 2.343v50.371c0 2.067 1.683 3.75 3.749 3.75h69.63c2.068 0 3.75-1.683 3.75-3.75V6.795c0-1.292-1.051-2.344-2.342-2.344H4.706m71.015 58.806H6.09C2.734 63.257 0 60.525 0 57.165V6.795C0 4.21 2.1 2.107 4.685 2.107H77.13c2.582 0 4.685 2.102 4.685 4.686v50.371c0 3.36-2.734 6.092-6.093 6.092" mask="url(#x297pzrfbb)"/>
            </g>
            <mask id="hq568o269d" fill="#fff">
                <use xlink:href="#nohgxnnvvc"/>
            </mask>
            <path fill="#1C3A54" d="M18.204 7.942h10.754v-5.6H18.204v5.6zm11.925 2.343H17.033c-.647 0-1.172-.523-1.172-1.172V1.171c0-.646.525-1.171 1.172-1.171h13.096c.647 0 1.172.525 1.172 1.171v7.942c0 .65-.525 1.172-1.172 1.172zM52.925 7.942H63.68v-5.6H52.925v5.6zm11.925 2.343H51.754c-.647 0-1.172-.523-1.172-1.172V1.171c0-.646.525-1.171 1.172-1.171H64.85c.65 0 1.172.525 1.172 1.171v7.942c0 .65-.523 1.172-1.172 1.172zM22 28.279c-.647 0-1.172-.525-1.172-1.171v-9.161c0-.649.525-1.171 1.172-1.171.646 0 1.171.522 1.171 1.171v9.16c0 .647-.525 1.172-1.171 1.172" mask="url(#hq568o269d)"/>
            <path fill="#1C3A54" d="M26.569 23.686h-9.16c-.65 0-1.172-.525-1.172-1.171 0-.647.522-1.172 1.171-1.172h9.16c.647 0 1.172.525 1.172 1.172 0 .646-.525 1.171-1.171 1.171M62.204 23.686h-9.161c-.649 0-1.171-.525-1.171-1.171 0-.647.522-1.172 1.171-1.172h9.16c.647 0 1.172.525 1.172 1.172 0 .646-.525 1.171-1.171 1.171" mask="url(#hq568o269d)"/>
            <path fill="#0FAFE6" d="M50.066 37.556L43.461 37.556 46.247 16.798 31.841 41.351 38.448 41.351 35.634 62.088z" mask="url(#hq568o269d)"/>
        </g>
    </g>
</svg>
