<svg xmlns="http://www.w3.org/2000/svg" xmlns:xlink="http://www.w3.org/1999/xlink" width="83" height="80" viewBox="0 0 83 80">
    <defs>
        <path id="a" d="M0 80h83V0H0z"/>
    </defs>
    <g fill="none" fill-rule="evenodd">
        <path fill="#0FAFE6" d="M80 19.735c0 7.807-10.548 28.112-15.713 37.589a3.154 3.154 0 0 1-4.308 1.282 3.168 3.168 0 0 1-1.268-1.282C53.546 47.75 43 27.542 43 19.734 43 9.389 51.282 1 61.501 1 71.716 1 80 9.388 80 19.735"/>
        <path stroke="#1C3A54" stroke-linecap="round" stroke-linejoin="round" stroke-width="1.5" d="M80 19.735c0 7.807-10.548 28.112-15.713 37.589a3.154 3.154 0 0 1-4.308 1.282 3.168 3.168 0 0 1-1.268-1.282C53.546 47.75 43 27.542 43 19.734 43 9.389 51.282 1 61.501 1 71.716 1 80 9.388 80 19.735z"/>
        <path fill="#FFF" d="M61.5 10c5.248 0 9.5 4.252 9.5 9.5S66.748 29 61.5 29a9.499 9.499 0 0 1-9.5-9.5c0-5.248 4.252-9.5 9.5-9.5"/>
        <path stroke="#1C3A54" stroke-linecap="round" stroke-linejoin="round" stroke-width="1.5" d="M61.5 10c5.248 0 9.5 4.252 9.5 9.5S66.748 29 61.5 29a9.499 9.499 0 0 1-9.5-9.5c0-5.248 4.252-9.5 9.5-9.5z"/>
        <path stroke="#1C3A54" stroke-linecap="round" stroke-linejoin="round" stroke-width="1.5" d="M2 79h79V63H2z"/>
        <path fill="#FFF" d="M12.355 48h58.29C76.365 48 81 52.714 81 58.527V62H2v-3.473C2 52.714 6.637 48 12.355 48"/>
        <path stroke="#1C3A54" stroke-linecap="round" stroke-linejoin="round" stroke-width="1.5" d="M12.355 48h58.29C76.365 48 81 52.714 81 58.527V62H2v-3.473C2 52.714 6.637 48 12.355 48z" />
        <path fill="#FFF" d="M30.334 47.92c.265-2.44 2.264-4.388 4.824-4.707h11.578c2.614.32 4.656 2.298 4.932 4.787H59c0-5.522-4.712-10-10.528-10H33.528C27.714 38 23 42.478 23 48l7.334-.08z" />
        <path stroke="#1C3A54" stroke-linecap="round" stroke-linejoin="round" stroke-width="1.5" d="M30.334 47.92c.265-2.44 2.264-4.388 4.824-4.707h11.578c2.614.32 4.656 2.298 4.932 4.787H59c0-5.522-4.712-10-10.528-10H33.528C27.714 38 23 42.478 23 48l7.334-.08z"/>
        <path fill="#0FAFE6" d="M23.499 56C24.88 56 26 57.048 26 58.34v9.32c0 1.292-1.12 2.34-2.501 2.34C22.119 70 21 68.952 21 67.66v-9.32c0-1.292 1.12-2.34 2.499-2.34"/>
        <path stroke="#1C3A54" stroke-linecap="round" stroke-linejoin="round" stroke-width="1.5" d="M23.499 56C24.88 56 26 57.048 26 58.34v9.32c0 1.292-1.12 2.34-2.501 2.34C22.119 70 21 68.952 21 67.66v-9.32c0-1.292 1.12-2.34 2.499-2.34z"/>
        <path fill="#0FAFE6" d="M58.5 56c1.38 0 2.5 1.048 2.5 2.34v9.32c0 1.292-1.12 2.34-2.5 2.34-1.382 0-2.5-1.048-2.5-2.34v-9.32c0-1.292 1.118-2.34 2.5-2.34"/>
        <path stroke="#1C3A54" stroke-linecap="round" stroke-linejoin="round" stroke-width="1.5" d="M58.5 56c1.38 0 2.5 1.048 2.5 2.34v9.32c0 1.292-1.12 2.34-2.5 2.34-1.382 0-2.5-1.048-2.5-2.34v-9.32c0-1.292 1.118-2.34 2.5-2.34z"/>
        <path fill="#FFF" d="M40.5 59c1.382 0 2.5 1.035 2.5 2.313v3.374C43 65.965 41.882 67 40.5 67c-1.38 0-2.5-1.035-2.5-2.313v-3.374C38 60.035 39.12 59 40.5 59"/>
        <path stroke="#1C3A54" stroke-linecap="round" stroke-linejoin="round" stroke-width="1.5" d="M40.5 59c1.382 0 2.5 1.035 2.5 2.313v3.374C43 65.965 41.882 67 40.5 67c-1.38 0-2.5-1.035-2.5-2.313v-3.374C38 60.035 39.12 59 40.5 59z"/>
    </g>
</svg>
