<svg xmlns="http://www.w3.org/2000/svg" width="92" height="78" viewBox="0 0 92 78">
    <path fill="#0FAFE6" fill-rule="evenodd" d="M51.52 36.691l14.452-24.283L80.408 36.69H51.52zM32.233 69.624l14.452-24.262 14.436 24.262H32.233zm-6.276-57.216L40.41 36.69H11.52l14.436-24.283zm65.434 26.33L69.573 2.047a4.165 4.165 0 0 0-5.74-1.446 4.193 4.193 0 0 0-1.438 1.447L45.976 29.644 29.555 2.05a4.165 4.165 0 0 0-7.175 0L.562 38.737a4.243 4.243 0 0 0 0 4.22 4.176 4.176 0 0 0 3.637 2.11h32.866L21.27 71.67a4.243 4.243 0 0 0 0 4.22A4.175 4.175 0 0 0 24.932 78h43.572a4.174 4.174 0 0 0 3.64-2.11 4.243 4.243 0 0 0 0-4.22L56.31 45.13h31.504a4.182 4.182 0 0 0 3.64-2.11 4.26 4.26 0 0 0-.063-4.283z"/>
</svg>
