<svg xmlns="http://www.w3.org/2000/svg" xmlns:xlink="http://www.w3.org/1999/xlink" width="82" height="79" viewBox="0 0 82 79">
    <defs>
        <path id="a" d="M0 .65h81.999v43.4H0z"/>
        <path id="c" d="M0 77.934h82V0H0z"/>
    </defs>
    <g fill="none" fill-rule="evenodd" transform="translate(0 .234)">
        <path fill="#0FAFE6" d="M17.061 51.504a.812.812 0 0 1-.61-.272.753.753 0 0 1 .096-1.085l10.606-8.629a.82.82 0 0 1 1.122.093c.285.325.24.81-.096 1.084l-10.603 8.629a.822.822 0 0 1-.515.18"/>
        <g transform="translate(0 33.884)">
            <path fill="#1C3A54" d="M19.065 41.952h43.87l16.54-35.066c-3.753-1.04-16.755-4.138-38.474-4.138-21.718 0-34.722 3.083-38.477 4.12l16.54 35.084zm44.538 2.098H18.398c-.408 0-.778-.235-.952-.602L.099 6.654a1.043 1.043 0 0 1-.014-.858c.117-.275.347-.487.63-.583C1.274 5.026 14.64.65 41.002.65c26.36 0 39.728 4.399 40.285 4.586.284.096.513.308.63.583.116.275.11.587-.016.858l-17.346 36.77a1.051 1.051 0 0 1-.95.603z"/>
        </g>
        <path fill="#0FAFE6" d="M51.623 70.48a.81.81 0 0 1-.61-.273.753.753 0 0 1 .096-1.084l10.604-8.629a.82.82 0 0 1 1.124.092.751.751 0 0 1-.096 1.085l-10.603 8.628a.813.813 0 0 1-.515.18M25.856 68.446a.779.779 0 0 1-.598-.282.808.808 0 0 1 .094-1.122l28.932-24.839a.773.773 0 0 1 1.101.095.804.804 0 0 1-.092 1.12L26.36 68.258a.771.771 0 0 1-.504.188"/>
        <path fill="#1C3A54" d="M35.346 5.389h10.633V2.063H35.346V5.39zm11.7 2.066h-12.77c-.592 0-1.07-.461-1.07-1.033v-5.39c0-.571.478-1.032 1.07-1.032h12.77c.593 0 1.07.46 1.07 1.033v5.389c0 .572-.477 1.033-1.07 1.033z"/>
        <path fill="#FFF" d="M23.006 31.174c-6.718 0-12.163-5.464-12.163-12.2.002-6.735 5.447-12.197 12.163-12.197h36.662c6.72-.002 12.165 5.46 12.167 12.196.002 6.737-5.443 12.2-12.163 12.2H23.006z"/>
        <path fill="#1C3A54" d="M22.686 29.754H59.31c2.967 0 5.76-1.158 7.855-3.258a11.05 11.05 0 0 0 3.252-7.862C70.415 12.505 65.433 7.52 59.312 7.52H22.686c-6.12 0-11.101 4.988-11.103 11.115a11.05 11.05 0 0 0 3.252 7.862 11.023 11.023 0 0 0 7.85 3.258m36.63 2.097h-36.63a13.108 13.108 0 0 1-9.334-3.872 13.142 13.142 0 0 1-3.863-9.345c.002-7.285 5.92-13.213 13.198-13.213H59.312c7.277 0 13.198 5.928 13.2 13.213a13.125 13.125 0 0 1-3.863 9.345 13.108 13.108 0 0 1-9.335 3.872"/>
        <path fill="#1C3A54" d="M22.6 12.293c-3.826 0-6.942 3.149-6.942 7.021s3.116 7.021 6.943 7.021h36.798c3.83 0 6.943-3.149 6.943-7.021s-3.114-7.021-6.943-7.021H22.601zm36.8 16.17H22.6c-4.988 0-9.046-4.104-9.046-9.149 0-5.045 4.058-9.149 9.047-9.149h36.798c4.989 0 9.047 4.104 9.047 9.149 0 5.045-4.058 9.149-9.047 9.149z"/>
        <path fill="#0FAFE6" d="M26.538 21.686a.783.783 0 0 1-.555-.23.782.782 0 0 1 0-1.11l3.852-3.852a.786.786 0 0 1 1.11 0 .786.786 0 0 1 0 1.11l-3.853 3.852a.783.783 0 0 1-.554.23M48.223 21.686a.792.792 0 0 1-.557-.23.79.79 0 0 1 0-1.11l3.852-3.852a.786.786 0 0 1 1.112 1.11l-3.85 3.852a.792.792 0 0 1-.557.23M34.68 24.397a.794.794 0 0 1-.562-.234.793.793 0 0 1 0-1.124l9.25-9.253a.797.797 0 0 1 1.127 1.125l-9.252 9.252a.794.794 0 0 1-.562.234"/>
    </g>
</svg>
